<?xml version="1.0" encoding="UTF-8" standalone="no"?>
<!-- Generator: Adobe Illustrator 19.0.0, SVG Export Plug-In . SVG Version: 6.00 Build 0)  -->

<svg
   version="1.1"
   id="Layer_1"
   x="0px"
   y="0px"
   viewBox="0 0 512 512"
   style="enable-background:new 0 0 512 512;"
   xml:space="preserve"
   sodipodi:docname="bingo.svg"
   inkscape:version="1.1.1 (3bf5ae0d25, 2021-09-20)"
   xmlns:inkscape="http://www.inkscape.org/namespaces/inkscape"
   xmlns:sodipodi="http://sodipodi.sourceforge.net/DTD/sodipodi-0.dtd"
   xmlns="http://www.w3.org/2000/svg"
   xmlns:svg="http://www.w3.org/2000/svg"><defs
   id="defs8589">
	

	
</defs><sodipodi:namedview
   id="namedview8587"
   pagecolor="#ffffff"
   bordercolor="#666666"
   borderopacity="1.0"
   inkscape:pageshadow="2"
   inkscape:pageopacity="0.0"
   inkscape:pagecheckerboard="0"
   showgrid="false"
   inkscape:zoom="1.1214272"
   inkscape:cx="284.45896"
   inkscape:cy="366.05142"
   inkscape:window-width="2400"
   inkscape:window-height="1271"
   inkscape:window-x="2391"
   inkscape:window-y="-9"
   inkscape:window-maximized="1"
   inkscape:current-layer="Layer_1" />

<rect
   style="fill:#ffffbc;fill-opacity:1;stroke:#000000;stroke-width:8;stroke-miterlimit:4;stroke-dasharray:none"
   id="rect9680"
   width="273.06699"
   height="477.866"
   x="119.467"
   y="17.066999" /><g
   id="g8522"
   style="fill:#260001;fill-opacity:1;stroke:#000000;stroke-width:0.3;stroke-miterlimit:4;stroke-dasharray:none;stroke-opacity:1"
   transform="translate(-1.2610905,11.349754)">
		<path
   d="m 359.467,153.6 h -59.733 -17.067 -51.2 -17.067 -59.733 c -4.713,0 -9.6,3.821 -9.6,8.533 v 59.733 17.067 51.2 17.067 51.2 17.067 59.733 c 0,4.713 4.887,8.533 9.6,8.533 h 58.667 17.066 51.2 17.067 60.8 c 4.713,0 7.467,-3.821 7.467,-8.533 v -59.733 -17.067 -51.2 -17.067 -51.2 -17.067 -59.733 c -0.001,-4.712 -2.755,-8.533 -7.467,-8.533 z M 213.333,426.667 h -51.2 v -51.2 h 51.2 z m 0,-68.267 h -51.2 v -51.2 h 51.2 z m 0,-68.267 h -51.2 v -51.2 h 51.2 z m 0,-68.266 h -51.2 v -51.2 h 51.2 z m 68.267,204.8 h -51.2 v -51.2 h 51.2 z m 0,-68.267 h -51.2 v -51.2 h 51.2 z m 0,-68.267 h -51.2 v -51.2 h 51.2 z m 0,-68.266 h -51.2 v -51.2 h 51.2 z m 68.267,204.8 h -51.2 v -51.2 h 51.2 z m 0,-68.267 h -51.2 v -51.2 h 51.2 z m 0,-68.267 h -51.2 v -51.2 h 51.2 z m 0,-68.266 h -51.2 v -51.2 h 51.2 z"
   id="path8520"
   style="fill:#260001;fill-opacity:1;stroke:#000000;stroke-width:0.3;stroke-miterlimit:4;stroke-dasharray:none;stroke-opacity:1" />
	</g>
<g
   id="g8530">
	<g
   id="g8528">
		<path
   d="M364.083,64.333c-4.522-4.667-10.594-7-18.217-7c-7.667,0-13.755,2.333-18.267,7s-6.767,10.967-6.767,18.9    c0,7.845,2.245,14.123,6.733,18.833c4.49,4.71,10.478,7.067,17.966,7.067c7.845,0,14.028-2.323,18.55-6.967    c4.523-4.645,6.783-10.989,6.783-19.033C370.867,75.267,368.606,69,364.083,64.333z M356.117,97.15    c-2.567,3.455-6.05,5.183-10.45,5.183c-4.178,0-7.545-1.75-10.1-5.25c-2.556-3.5-3.833-8.127-3.833-13.883    c0-5.8,1.283-10.433,3.85-13.9c2.568-3.467,5.994-5.2,10.283-5.2c4.244,0,7.655,1.733,10.233,5.2    c2.578,3.467,3.867,8.067,3.867,13.8C359.967,89.011,358.683,93.694,356.117,97.15z"
   id="path8526" />
	</g>
</g>
<g
   id="g8536">
	<g
   id="g8534">
		<path
   d="M175.033,82.246c7.888-2.467,11.833-6.723,11.833-12.656c0-3.577-1.295-6.812-3.883-8.678    c-2.588-1.867-6.361-3.311-11.317-3.311h-15.933v51.2H173.2c5.044,0,8.917-1.5,11.617-3.6s4.05-5.342,4.05-9.275    C188.867,89.125,184.256,84.491,175.033,82.246z M164.267,66.133h2.367c3.8,0,6.383,0.005,7.749,0.817    c1.368,0.812,2.051,2.15,2.051,4.417c0,2.444-0.85,4.195-2.549,5.617c-1.701,1.423-3.995,1.95-6.884,1.95h-2.733V66.133z     M175.683,99.154c-1.633,0.923-4.605,1.113-8.917,1.113h-2.5V85.333h2.3c3.333,0,6.094,1.017,8.283,2.683    c2.189,1.667,3.283,3.847,3.283,6.358C178.133,96.82,177.317,98.231,175.683,99.154z"
   id="path8532" />
	</g>
</g>
<g
   id="g8542">
	<g
   id="g8540">
		<path
   d="M296.775,64.1c3.955,0,10.425,1.055,14.692,3.167v-8.034c-4.267-1.267-10.217-1.9-15.617-1.9    c-8.445,0-14.725,2.233-19.293,6.7c-4.566,4.467-6.736,10.844-6.736,19.133c0,8.356,2.106,14.772,6.673,19.25    c4.567,4.478,10.928,6.717,19.44,6.717c4.489,0,11.267-0.8,15.533-2.4v-21.4h-8.533v16.4c-2.133,0.333-3.355,0.5-4.533,0.5    c-5.355,0-9.755-1.683-12.8-5.05c-3.045-3.367-4.667-8.006-4.667-13.917c0-6.111,1.372-10.833,4.217-14.167    C287.995,65.767,291.552,64.1,296.775,64.1z"
   id="path8538" />
	</g>
</g>
<g
   id="g8548">
	<g
   id="g8546">
		<rect
   x="198.4"
   y="57.6"
   width="10.667"
   height="51.2"
   id="rect8544" />
	</g>
</g>
<g
   id="g8554">
	<g
   id="g8552">
		<polygon
   points="251.733,57.6 251.733,92.267 229.567,57.6 219.733,57.6 219.733,108.8 228.267,108.8 228.267,74.2 251.467,108.8     260.267,108.8 260.267,57.6   "
   id="polygon8550" />
	</g>
</g>
<g
   id="g8556">
</g>
<g
   id="g8558">
</g>
<g
   id="g8560">
</g>
<g
   id="g8562">
</g>
<g
   id="g8564">
</g>
<g
   id="g8566">
</g>
<g
   id="g8568">
</g>
<g
   id="g8570">
</g>
<g
   id="g8572">
</g>
<g
   id="g8574">
</g>
<g
   id="g8576">
</g>
<g
   id="g8578">
</g>
<g
   id="g8580">
</g>
<g
   id="g8582">
</g>
<g
   id="g8584">
</g>
</svg>
