<?xml version="1.0" encoding="UTF-8" standalone="no"?>
<!-- Created with Inkscape (http://www.inkscape.org/) -->

<svg
   width="144.86893mm"
   height="145.37155mm"
   viewBox="0 0 144.86893 145.37155"
   version="1.1"
   id="svg19233"
   inkscape:version="1.1.1 (3bf5ae0d25, 2021-09-20)"
   sodipodi:docname="discotecas.svg"
   xmlns:inkscape="http://www.inkscape.org/namespaces/inkscape"
   xmlns:sodipodi="http://sodipodi.sourceforge.net/DTD/sodipodi-0.dtd"
   xmlns="http://www.w3.org/2000/svg"
   xmlns:svg="http://www.w3.org/2000/svg">
  <sodipodi:namedview
     id="namedview19235"
     pagecolor="#ffffff"
     bordercolor="#666666"
     borderopacity="1.0"
     inkscape:pageshadow="2"
     inkscape:pageopacity="0.0"
     inkscape:pagecheckerboard="0"
     inkscape:document-units="mm"
     showgrid="false"
     fit-margin-top="0"
     fit-margin-left="0"
     fit-margin-right="0"
     fit-margin-bottom="0"
     inkscape:zoom="1.0230034"
     inkscape:cx="313.78196"
     inkscape:cy="342.61862"
     inkscape:window-width="2400"
     inkscape:window-height="1271"
     inkscape:window-x="2391"
     inkscape:window-y="-9"
     inkscape:window-maximized="1"
     inkscape:current-layer="layer1" />
  <defs
     id="defs19230">
    <inkscape:path-effect
       effect="bspline"
       id="path-effect53517"
       is_visible="true"
       lpeversion="1"
       weight="33.333333"
       steps="2"
       helper_size="0"
       apply_no_weight="true"
       apply_with_weight="true"
       only_selected="false" />
  </defs>
  <g
     inkscape:label="Capa 1"
     inkscape:groupmode="layer"
     id="layer1"
     transform="translate(-27.455425,-67.147517)">
    <g
       id="g58526"
       transform="translate(-141.18473,-1.0972906)">
      <ellipse
         style="fill:#38b1c9;fill-opacity:1;stroke:#000000;stroke-width:0.0244388;stroke-miterlimit:4;stroke-dasharray:0, 0.268827;stroke-dashoffset:0"
         id="path19328"
         cx="241.13493"
         cy="140.8208"
         rx="70.682602"
         ry="69.863075" />
      <g
         id="g53820">
        <ellipse
           style="fill:#45cdd9;fill-opacity:1;stroke:#000000;stroke-width:0.0243343;stroke-miterlimit:4;stroke-dasharray:0, 0.267677;stroke-dashoffset:0"
           id="path24451"
           cx="241.03816"
           cy="141.55048"
           rx="63.453678"
           ry="62.722149" />
        <circle
           style="fill:#5dc43d;fill-opacity:1;stroke:#000000;stroke-width:0.0220139;stroke-miterlimit:4;stroke-dasharray:0, 0.242153;stroke-dashoffset:0"
           id="path27134"
           cx="241.03816"
           cy="141.91626"
           r="57.605843" />
        <circle
           style="fill:#86d631;fill-opacity:1;stroke:#000000;stroke-width:0.0209465;stroke-miterlimit:4;stroke-dasharray:0, 0.230412;stroke-dashoffset:0"
           id="path28313"
           cx="240.92665"
           cy="142.38715"
           r="49.399174" />
        <circle
           style="fill:#ff6bb5;fill-opacity:1;stroke:#000000;stroke-width:0.0225142;stroke-miterlimit:4;stroke-dasharray:0, 0.247657;stroke-dashoffset:0"
           id="path29804"
           cx="241.40395"
           cy="142.83069"
           r="40.779778" />
        <path
           style="fill:none;stroke:#fe0000;stroke-width:4;stroke-linecap:round;stroke-linejoin:miter;stroke-miterlimit:4;stroke-dasharray:none;stroke-opacity:1"
           d="m 226.7734,104.79126 c -6.19367,2.97054 -16.50188,9.345 -20.43704,17.37377 -5.63994,11.50698 -8.14326,23.976 -1.73738,38.40517"
           id="path52179"
           sodipodi:nodetypes="cac" />
      </g>
      <path
         style="fill:none;stroke:#ff0000;stroke-width:4;stroke-linecap:round;stroke-linejoin:round;stroke-miterlimit:4;stroke-dasharray:none;stroke-opacity:1"
         d="m 193.54824,88.918666 c 11.65872,-10.104139 25.52609,-16.746047 38.53605,-18.238903 13.00997,-1.492856 27.85588,1.217514 35.0375,4.151409 11.73442,4.793848 28.09887,17.139395 36.49344,32.851408 8.42767,15.77399 9.71157,33.39576 5.73096,49.71636 -5.07714,20.81644 -16.79921,30.79209 -21.91385,35.81384"
         id="path39912"
         sodipodi:nodetypes="cssssc" />
      <g
         id="g53813"
         transform="translate(-126.7306,-91.556395)">
        <path
           style="fill:#79498e;fill-opacity:1;stroke:#000000;stroke-width:4;stroke-linecap:butt;stroke-linejoin:miter;stroke-miterlimit:4;stroke-dasharray:none;stroke-opacity:1"
           d="m 355.97337,215.39557 -29.48834,-25.33562 c -5.01098,-5.52289 -15.42181,-0.402 -8.61763,7.66805 l 33.35104,28.09183 -0.18288,23.0431 -13.71613,8.0468 c -1.37933,0.57102 -3.72037,1.99255 -4.82002,3.62934 -1.35444,2.01603 -2.48645,5.87196 -2.8153,7.98366 -0.94675,6.07968 -2.0117,16.23075 -2.0117,16.23075 -1.55586,11.58508 0.71089,13.34236 4.4806,13.44181 5.49163,0.21192 6.68184,-4.37581 7.04095,-7.81819 0,0 1.04059,-11.26723 2.05742,-16.82513 0.37164,-2.03135 0.36625,-4.27446 1.47397,-6.01729 0.94268,-1.48318 2.78636,-2.79799 4.10393,-3.30968 l 12.07019,-7.13239 h 15.17919 l 24.68904,41.1484 c 4.95339,6.33049 7.08247,5.48366 9.90498,3.42506 2.54838,-1.85866 1.96713,-7.02808 -0.21225,-9.46016 L 389.11472,260.5493 c 0,0 -5.60856,-6.95492 -6.80638,-11.13772 -1.8126,-6.3296 0.0483,-6.65529 -0.18288,-19.75123 -0.0417,-2.36198 6.66552,1.65177 8.41256,4.93781 1.05515,1.98465 -2.92611,11.52155 -2.92611,11.52155 -3.37274,13.28016 9.28527,11.84825 11.33867,3.10899 l 4.0234,-14.44766 c 0.83227,-4.21248 -1.68229,-6.19375 -3.84052,-8.41256 0,0 -9.26716,-8.21297 -14.99631,-10.0585 -8.94046,-2.87999 -28.16378,-0.91441 -28.16378,-0.91441 z"
           id="path31540"
           sodipodi:nodetypes="ccccccsscccaaccccaccsssscccsc" />
        <path
           style="fill:#ffd6fb;fill-opacity:1;stroke:#000000;stroke-width:3.62699;stroke-linecap:butt;stroke-linejoin:round;stroke-miterlimit:4;stroke-dasharray:none;stroke-opacity:1"
           d="m 355.97337,215.39557 23.61826,0.27762 -11.49841,16.94339 z"
           id="path44225"
           sodipodi:nodetypes="cccc" />
        <g
           id="g51789"
           transform="translate(279.78966,121.88339)">
          <circle
             style="fill:#ffa588;fill-opacity:1;stroke:#020000;stroke-width:3.33527;stroke-linecap:round;stroke-linejoin:round;stroke-miterlimit:4;stroke-dasharray:none;stroke-dashoffset:0;stroke-opacity:1"
             id="path50264"
             cx="88.743744"
             cy="74.777519"
             r="14.412848" />
          <path
             style="fill:#8f7d74;fill-opacity:1;stroke:#010000;stroke-width:3;stroke-linecap:butt;stroke-linejoin:miter;stroke-miterlimit:4;stroke-dasharray:none;stroke-opacity:1"
             d="m 77.230343,85.929761 c 1.204922,0.846919 2.438854,-3.449269 1.604722,-6.456539 -0.976103,-3.519115 -2.971774,-6.692019 -1.309559,-5.180639 2.516731,2.288354 7.36036,2.265667 11.831624,2.281464 6.462063,0.02283 10.79113,-3.18003 10.446863,-2.049613 -0.4743,1.557378 -1.497676,3.187782 -1.891803,4.528099 -1.268255,4.312977 0.93673,8.543823 2.69638,6.070344 2.40183,-3.376155 2.84646,-4.744528 3.42607,-8.092395 0.58057,-3.353374 0.14584,-6.11353 0.14584,-6.11353 0.0727,-0.496528 -0.85477,-3.935922 -3.26603,-6.854509 -2.623594,-3.175601 -7.219318,-5.772979 -12.397005,-5.514197 -6.862864,0.343008 -12.908254,4.230994 -15.130081,10.733304 -0.92813,2.71623 -0.705018,6.734484 -0.139785,10.292633 0.532143,3.349854 1.722225,4.766683 3.982764,6.355578 z"
             id="path45100"
             sodipodi:nodetypes="sssssssscsssss" />
        </g>
        <circle
           style="fill:#050303;fill-opacity:1;stroke:#010000;stroke-width:1;stroke-linecap:round;stroke-linejoin:round;stroke-miterlimit:4;stroke-dasharray:none;stroke-dashoffset:0;stroke-opacity:1"
           id="path51813"
           cx="361.53781"
           cy="237.73898"
           r="1.4630542" />
        <circle
           style="fill:#050303;fill-opacity:1;stroke:#010000;stroke-width:1;stroke-linecap:round;stroke-linejoin:round;stroke-miterlimit:4;stroke-dasharray:none;stroke-dashoffset:0;stroke-opacity:1"
           id="circle51925"
           cx="361.62924"
           cy="243.40833"
           r="1.4630542" />
        <circle
           style="fill:#050303;fill-opacity:1;stroke:#010000;stroke-width:1;stroke-linecap:round;stroke-linejoin:round;stroke-miterlimit:4;stroke-dasharray:none;stroke-dashoffset:0;stroke-opacity:1"
           id="circle52007"
           cx="372.41925"
           cy="237.83043"
           r="1.4630542" />
        <circle
           style="fill:#050303;fill-opacity:1;stroke:#010000;stroke-width:1;stroke-linecap:round;stroke-linejoin:round;stroke-miterlimit:4;stroke-dasharray:none;stroke-dashoffset:0;stroke-opacity:1"
           id="circle52009"
           cx="372.69357"
           cy="243.49977"
           r="1.4630542" />
        <circle
           style="fill:#050303;fill-opacity:1;stroke:#010000;stroke-width:1;stroke-linecap:round;stroke-linejoin:round;stroke-miterlimit:4;stroke-dasharray:none;stroke-dashoffset:0;stroke-opacity:1"
           id="circle52011"
           cx="372.69357"
           cy="243.49977"
           r="1.4630542" />
      </g>
      <path
         style="fill:none;stroke:#ff0000;stroke-width:4;stroke-linecap:round;stroke-linejoin:miter;stroke-miterlimit:4;stroke-dasharray:none;stroke-opacity:1"
         d="m 209.03386,94.184112 c -0.42001,-0.25566 4.87735,-3.320808 11.24316,-5.8514 4.8211,-1.916526 10.26477,-3.438712 14.24599,-3.704172 12.60828,-0.840695 25.85262,1.304541 36.08845,8.02786 2.73896,1.799066 5.57153,3.701498 8.10018,5.859873 5.48815,4.684497 10.14448,10.274737 13.53343,16.516367 4.53708,8.3562 6.31862,18.2899 6.40085,27.79802 0.0622,7.19734 -1.82542,14.43288 -4.4806,21.12285 -2.48761,6.26777 -10.51569,17.28232 -10.51569,17.28232"
         id="path53855"
         sodipodi:nodetypes="csssssaac" />
      <path
         style="fill:none;stroke:#fe0000;stroke-width:4;stroke-linecap:round;stroke-linejoin:miter;stroke-miterlimit:4;stroke-dasharray:none;stroke-opacity:1"
         d="m 180.13854,105.70566 c 0,0 -2.16582,3.34713 -4.24991,8.4813 -1.67221,4.11951 -3.25727,9.73498 -3.88833,13.09875 -1.64119,8.7481 -1.87225,17.94463 -0.27432,26.70074 1.43282,7.85134 4.89959,15.28642 8.68689,22.31158 1.89832,3.52125 6.94951,9.78417 6.94951,9.78417"
         id="path55281"
         sodipodi:nodetypes="cssaac" />
      <path
         style="fill:none;stroke:#fe0000;stroke-width:4;stroke-linecap:round;stroke-linejoin:miter;stroke-miterlimit:4;stroke-dasharray:none;stroke-opacity:1"
         d="m 190.5628,114.57543 c 0,0 -1.70596,2.79121 -3.22452,6.79135 -1.17616,3.09822 -2.16673,7.16863 -2.62769,9.66801 -1.19442,6.47629 -1.59109,13.26407 -0.45721,19.75123 0.54721,3.13071 1.69436,8.3845 3.26268,12.31047 2.64105,6.61136 5.97285,11.5556 5.97285,11.5556"
         id="path55743"
         sodipodi:nodetypes="cssssc" />
      <path
         style="fill:none;stroke:#fe0000;stroke-width:4;stroke-linecap:round;stroke-linejoin:miter;stroke-miterlimit:4;stroke-dasharray:none;stroke-opacity:1"
         d="m 222.16651,178.78067 c -0.2661,0.15966 8.26664,3.88459 13.51362,4.46143 5.17641,0.56908 10.63374,0.19929 14.35418,-0.58192"
         id="path56547"
         sodipodi:nodetypes="csc" />
      <path
         style="fill:none;stroke:#fe0000;stroke-width:4;stroke-linecap:round;stroke-linejoin:miter;stroke-miterlimit:4;stroke-dasharray:none;stroke-opacity:1"
         d="m 221.6721,196.15878 c 1.35816,0.60363 10.26186,2.97952 15.40832,3.35048 2.52566,0.18205 6.2481,0.0161 9.51053,-0.34843 4.0131,-0.44843 7.36533,-1.13872 7.36533,-1.13872"
         id="path56549"
         sodipodi:nodetypes="cssc" />
      <path
         style="fill:none;stroke:#fd0000;stroke-width:4;stroke-linecap:round;stroke-linejoin:miter;stroke-miterlimit:4;stroke-dasharray:none;stroke-opacity:1"
         d="m 220.35607,207.61835 c 0,0 10.95538,2.67473 16.55257,2.90963 3.28726,0.13796 8.16252,0.0661 12.37684,-0.40288 4.98846,-0.5551 9.08977,-1.53687 9.08977,-1.53687"
         id="path56551"
         sodipodi:nodetypes="cssc" />
      <path
         style="fill:none;stroke:#fe0000;stroke-width:4;stroke-linecap:round;stroke-linejoin:miter;stroke-miterlimit:4;stroke-dasharray:none;stroke-opacity:1"
         d="m 262.8011,108.17457 c 0,0 3.58552,2.22235 6.959,5.42339 2.68651,2.54919 5.06115,5.84914 6.66569,8.2013 1.93066,2.83022 3.19605,6.11789 4.11485,9.41841 1.12545,4.04285 1.64962,8.2851 1.64592,12.48168 -0.003,3.10589 -0.41514,6.23965 -1.23444,9.23553 -1.09166,3.99179 -2.79775,7.83438 -4.84637,11.43011 -1.0306,1.8089 -3.70335,5.02925 -3.70335,5.02925"
         id="path58001"
         sodipodi:nodetypes="cssaaaac" />
    </g>
  </g>
</svg>
