<?xml version="1.0" encoding="UTF-8" standalone="no"?>
<!-- Generator: Adobe Illustrator 16.0.0, SVG Export Plug-In . SVG Version: 6.00 Build 0)  -->

<svg
   version="1.1"
   id="Capa_1"
   x="0px"
   y="0px"
   width="42.300198"
   height="42.300198"
   viewBox="0 0 42.300199 42.300199"
   xml:space="preserve"
   sodipodi:docname="flamenco.svg"
   inkscape:version="1.1.1 (3bf5ae0d25, 2021-09-20)"
   xmlns:inkscape="http://www.inkscape.org/namespaces/inkscape"
   xmlns:sodipodi="http://sodipodi.sourceforge.net/DTD/sodipodi-0.dtd"
   xmlns="http://www.w3.org/2000/svg"
   xmlns:svg="http://www.w3.org/2000/svg"><defs
   id="defs43" /><sodipodi:namedview
   id="namedview41"
   pagecolor="#ffffff"
   bordercolor="#666666"
   borderopacity="1.0"
   inkscape:pageshadow="2"
   inkscape:pageopacity="0.0"
   inkscape:pagecheckerboard="0"
   showgrid="false"
   fit-margin-top="0"
   fit-margin-left="0"
   fit-margin-right="0"
   fit-margin-bottom="0"
   inkscape:zoom="17.951811"
   inkscape:cx="17.212748"
   inkscape:cy="17.909057"
   inkscape:window-width="2400"
   inkscape:window-height="1271"
   inkscape:window-x="2391"
   inkscape:window-y="-9"
   inkscape:window-maximized="1"
   inkscape:current-layer="Capa_1" />
<circle
   style="fill:#ad0000;fill-opacity:1;stroke:none;stroke-width:57.2241;stroke-linecap:round;stroke-linejoin:round;stroke-miterlimit:10"
   id="path882"
   cx="21.150099"
   cy="21.150099"
   r="21.150099" /><g
   id="g8"
   transform="translate(6.8662708,4.8888952)"
   style="fill:#ffffff;fill-opacity:1">
	<g
   id="g6"
   style="fill:#ffffff;fill-opacity:1">
		<path
   d="m 10.973,8.899 c -0.157,-0.262 1.24,-5.295 1.24,-5.695 0,-0.398 -0.96,-1.728 -1.063,-1.926 C 11.046,1.08 10.6,0.94 10.382,0.776 10.163,0.613 9.888,0.267 9.688,0.082 c -0.2,-0.185 -1.388,0 -1.729,0 -0.34,0 0.134,0.533 0.477,0.633 -0.107,0.21 -0.64,0.476 -0.477,0.652 0.163,0.176 1.285,-0.397 1.595,-0.266 0.311,0.133 0.616,0.965 0.616,0.965 0,0 -0.143,0.365 -0.04,0.631 0.103,0.264 0.518,0.604 0.443,0.93 C 10.5,3.951 9.804,5.13 9.598,5.488 9.392,5.845 9.332,6.713 9.155,6.905 c -0.177,0.192 -0.576,0 -0.576,0 0,0 0.236,-1.491 0.134,-1.771 C 8.609,4.853 8.609,3.185 6.984,3.449 5.359,3.715 5.581,5.488 5.699,5.798 c 0.058,0.151 0.093,0.722 0.296,1.02 0.214,0.314 0.591,0.354 0.591,0.354 0,0 0.118,0.37 0,0.488 C 6.467,7.777 5.079,6.995 5.079,6.995 5.079,6.995 3.587,5.8 3.572,5.622 3.566,5.545 3.709,5.366 3.72,5.149 3.733,4.87 3.622,4.547 3.705,4.513 3.852,4.453 4.049,4.233 4.192,4.115 4.335,3.998 4.133,3.643 4.281,3.496 4.429,3.349 5.283,2.473 5.476,2.299 5.67,2.125 6.041,1.9 6.251,1.768 6.462,1.634 7.16,1.059 7.071,0.837 6.982,0.614 6.369,1.428 6.229,1.339 6.088,1.25 6.007,0.453 5.564,0.614 5.254,0.728 4.716,1.675 4.545,1.944 4.373,2.213 4.427,2.211 4.249,2.342 4.393,2.234 3.488,2.995 2.949,3.449 2.739,3.627 2.521,3.99 2.285,4.292 1.917,4.761 1.558,5.2 1.532,5.488 1.488,5.96 3.141,8.133 3.48,8.323 3.821,8.514 4.367,8.635 4.588,8.854 4.81,9.076 5.445,9.579 5.563,9.851 c 0.119,0.273 1.004,1.56 1.462,2.017 0.459,0.457 1.179,0.593 1.462,0.665 0.284,0.072 0.443,0.872 0.354,1.373 -0.088,0.501 -0.62,1.447 -0.797,2.438 -0.178,0.988 0.319,1.672 0.4,2.391 0.118,1.049 -1.111,7.767 -1.309,8.863 -0.196,1.098 -0.155,3.117 -0.377,3.456 -0.221,0.34 0,0.931 0,0.931 0,0 2.836,0 3.545,0 0.709,0 1.226,-0.235 1.196,-0.487 -0.03,-0.252 -1.329,-0.177 -1.374,-0.709 -0.044,-0.531 1.729,-12.036 1.95,-12.672 0.221,-0.635 0.709,-2.791 0.664,-3.943 C 12.695,13.021 12.104,10.955 11.897,10.452 11.695,9.948 11.129,9.161 10.973,8.899 Z"
   id="path2"
   style="fill:#ffffff;fill-opacity:1" />
		<path
   d="M 30.423,16.521 C 30.336,16.397 30.005,15.689 29.67,15.325 28.918,14.507 27.876,13.764 27.632,13.508 27.278,13.14 26.924,12.755 26.391,12.866 25.86,12.976 26.125,12.93 25.682,13.11 25.241,13.288 22.375,13.168 21.96,12.931 21.546,12.696 20.227,11.843 19.922,11.647 19.618,11.452 19.185,10.716 18.771,10.54 18.356,10.362 17.899,10.466 17.751,10.274 17.604,10.082 17.367,9.431 17.515,9.299 17.663,9.165 18.179,9.913 18.578,9.662 18.976,9.41 18.801,8.822 18.769,8.678 18.739,8.534 19.271,7.673 19.08,7.039 18.889,6.403 17.958,6.138 17.351,6.063 c -0.604,-0.073 -1.018,0.62 -1.018,0.62 0,0 -0.311,0.192 -0.71,0.222 -0.148,0.012 -0.023,0.18 0.045,0.311 0.068,0.13 -0.311,0.664 -0.233,0.882 0.077,0.219 0.72,0.329 0.698,0.58 -0.022,0.251 -0.169,0.71 -0.73,0.753 C 14.84,9.476 14.665,8.56 14.25,8.28 14.043,8.14 13.949,7.656 13.75,7.26 13.55,6.864 13.246,6.555 13.187,6.418 13.069,6.144 13.585,5.134 13.585,5.134 c 0,0 2.319,0.916 3.766,-0.989 1.58,-2.08 -0.221,-4.063 -0.221,-4.063 l -1.861,1.462 c 0,0 -0.147,-0.162 -0.354,0 -0.207,0.163 -0.747,0.578 -0.975,0.754 -0.227,0.176 -1.714,3.604 -1.728,3.942 -0.015,0.341 1.506,4.033 1.506,4.033 0,0 -0.256,0.617 -0.531,1.285 -0.276,0.667 0.385,2.466 0.222,3.811 -0.164,1.343 0.273,4.296 0.43,5.448 0.154,1.153 0.102,5.775 -0.341,8.685 1.181,0.682 2.26,0.355 2.26,0.355 0,0 0.139,0.277 0.266,0.531 0.127,0.253 -1.212,0.916 -0.754,0.975 0.459,0.06 1.802,0.005 1.95,0 0.147,-0.006 0.649,-0.604 0.649,-0.604 l 0.259,0.438 0.224,-0.017 0.212,-0.829 c 0,0 0.62,0.172 0.916,-0.096 -0.235,-0.266 -0.576,-0.917 -0.576,-0.917 0,0 2.274,-0.498 2.128,-0.811 -0.147,-0.312 -0.887,-2.88 -0.887,-2.88 0,0 8.729,-6.04 8.772,-6.558 0.043,-0.518 0.044,-1.507 0.044,-1.507 0,0 1.742,-0.663 1.462,-1.061 z M 16.452,14.806 c 0.146,-0.221 -0.089,-0.841 0,-1.137 0.089,-0.295 0.59,-0.931 0.78,-1.212 0.193,-0.279 0.504,-0.427 0.858,-0.383 0.354,0.044 1.204,1.016 1.666,1.157 0.462,0.143 2.438,0.748 2.438,0.748 0,0 -3.247,0.149 -5.742,0.827 z"
   id="path4"
   style="fill:#ffffff;fill-opacity:1" />
	</g>
</g>
<g
   id="g10"
   transform="translate(2.9273548,3.8647766)">
</g>
<g
   id="g12"
   transform="translate(2.9273548,3.8647766)">
</g>
<g
   id="g14"
   transform="translate(2.9273548,3.8647766)">
</g>
<g
   id="g16"
   transform="translate(2.9273548,3.8647766)">
</g>
<g
   id="g18"
   transform="translate(2.9273548,3.8647766)">
</g>
<g
   id="g20"
   transform="translate(2.9273548,3.8647766)">
</g>
<g
   id="g22"
   transform="translate(2.9273548,3.8647766)">
</g>
<g
   id="g24"
   transform="translate(2.9273548,3.8647766)">
</g>
<g
   id="g26"
   transform="translate(2.9273548,3.8647766)">
</g>
<g
   id="g28"
   transform="translate(2.9273548,3.8647766)">
</g>
<g
   id="g30"
   transform="translate(2.9273548,3.8647766)">
</g>
<g
   id="g32"
   transform="translate(2.9273548,3.8647766)">
</g>
<g
   id="g34"
   transform="translate(2.9273548,3.8647766)">
</g>
<g
   id="g36"
   transform="translate(2.9273548,3.8647766)">
</g>
<g
   id="g38"
   transform="translate(2.9273548,3.8647766)">
</g>
</svg>
