<?xml version="1.0" encoding="UTF-8" standalone="no"?>
<!-- Generator: Adobe Illustrator 18.1.1, SVG Export Plug-In . SVG Version: 6.00 Build 0)  -->

<svg
   version="1.1"
   id="Capa_1"
   x="0px"
   y="0px"
   viewBox="0 0 800.8964 776.86949"
   xml:space="preserve"
   sodipodi:docname="Artesania.svg"
   width="800.89642"
   height="776.86951"
   inkscape:version="1.1.1 (3bf5ae0d25, 2021-09-20)"
   xmlns:inkscape="http://www.inkscape.org/namespaces/inkscape"
   xmlns:sodipodi="http://sodipodi.sourceforge.net/DTD/sodipodi-0.dtd"
   xmlns="http://www.w3.org/2000/svg"
   xmlns:svg="http://www.w3.org/2000/svg"><defs
   id="defs18201">
	
</defs><sodipodi:namedview
   id="namedview18199"
   pagecolor="#ffffff"
   bordercolor="#666666"
   borderopacity="1.0"
   inkscape:pageshadow="2"
   inkscape:pageopacity="0.0"
   inkscape:pagecheckerboard="0"
   showgrid="false"
   fit-margin-top="0"
   fit-margin-left="0"
   fit-margin-right="0"
   fit-margin-bottom="0"
   inkscape:zoom="0.96846949"
   inkscape:cx="484.26926"
   inkscape:cy="558.09709"
   inkscape:window-width="2400"
   inkscape:window-height="1271"
   inkscape:window-x="2391"
   inkscape:window-y="-9"
   inkscape:window-maximized="1"
   inkscape:current-layer="g18164" />
<g
   id="g18164"
   transform="translate(2543.3285,817.80848)">
		
		
	<path
   style="fill:#39aec0;stroke-width:1.56425"
   d="m -1742.4321,-80.983844 c 0,22.112251 -17.9326,40.044853 -40.0449,40.044853 h -720.8067 c -22.1123,0 -40.0448,-17.932602 -40.0448,-40.044853 V -777.76368 c 0,-22.11225 17.9325,-40.0448 40.0448,-40.0448 h 720.8067 c 22.1123,0 40.0449,17.93255 40.0449,40.0448 z"
   id="path12116" /><path
   d="m -2094.0532,-617.37876 c -4.0946,-19.08986 -20.9035,-33.37453 -41.0966,-33.37453 -20.1928,0 -37.0391,14.32206 -41.0589,33.37453 -51.7352,11.55488 -95.0006,44.70506 -121.0832,89.33532 h 324.9015 c -26.0826,-44.72375 -69.834,-77.74303 -121.6628,-89.33532 z"
   id="path18160"
   style="fill:#ffeea6;fill-opacity:1;stroke-width:18.6972" /><path
   d="m -1812.0243,-475.46688 c -9.0121,-22.39925 -23.7829,-36.85221 -43.9572,-43.07839 -32.2714,-9.85343 -70.769,4.48734 -95.1127,16.65922 -2.2437,-1.90711 -4.5061,-3.81423 -6.8245,-5.66526 h -354.4058 c -42.4053,33.31846 -69.1797,78.54702 -72.0216,128.58079 -1.4398,-4.59952 -2.7112,-9.44211 -3.7769,-14.41556 -1.5706,-7.90892 -2.8608,-16.00482 -3.5338,-24.2503 l -0.6169,-6.95536 -0.8228,-6.97406 c -0.86,-6.39445 -1.9631,-11.79796 -3.7768,-17.40711 -3.3469,-11.06876 -9.5355,-22.19361 -17.9493,-30.53256 -8.4885,-8.37635 -18.2485,-14.30338 -27.2792,-16.04221 -43.8637,-8.32027 -52.0157,29.97164 -52.0157,29.97164 0,0 53.6237,-9.38601 51.6979,27.80277 0.3551,2.71109 0.299,6.02049 0.1682,8.37636 -0.2057,4.24426 -0.4114,8.54462 -0.6545,12.84498 -0.5235,9.77864 -0.3552,19.91253 0.2804,30.1586 1.4211,20.52955 5.4223,42.12483 14.584,62.26174 8.9373,20.06212 23.895,38.14233 40.3299,49.22977 16.3601,11.33052 32.5893,16.21049 44.0692,18.36067 3.0664,0.52358 5.7402,0.95352 8.1894,1.21532 25.1105,26.99878 57.0078,47.99577 89.2232,59.47585 h 221.5807 c 41.4891,-16.02351 76.7147,-40.49818 101.2081,-70.95594 96.1036,-72.37693 145.3335,-124.05604 111.4167,-208.66096 z m -84.3805,162.6845 c 7.2357,-18.1737 11.0874,-37.48792 11.0874,-57.41916 0,-44.10674 -18.7907,-84.79188 -50.5012,-117.34373 21.3149,-9.85343 50.763,-19.5199 74.1719,-12.30277 14.4529,4.46863 24.8113,14.82689 31.5609,31.67308 23.9886,59.8498 2.7484,98.45955 -66.319,155.39258 z"
   id="path18162"
   style="fill:#ffeea6;fill-opacity:1;stroke-width:18.6972" /></g>
<g
   id="g18168"
   transform="translate(2543.3285,817.80848)">
</g>
<g
   id="g18170"
   transform="translate(2543.3285,817.80848)">
</g>
<g
   id="g18172"
   transform="translate(2543.3285,817.80848)">
</g>
<g
   id="g18174"
   transform="translate(2543.3285,817.80848)">
</g>
<g
   id="g18176"
   transform="translate(2543.3285,817.80848)">
</g>
<g
   id="g18178"
   transform="translate(2543.3285,817.80848)">
</g>
<g
   id="g18180"
   transform="translate(2543.3285,817.80848)">
</g>
<g
   id="g18182"
   transform="translate(2543.3285,817.80848)">
</g>
<g
   id="g18184"
   transform="translate(2543.3285,817.80848)">
</g>
<g
   id="g18186"
   transform="translate(2543.3285,817.80848)">
</g>
<g
   id="g18188"
   transform="translate(2543.3285,817.80848)">
</g>
<g
   id="g18190"
   transform="translate(2543.3285,817.80848)">
</g>
<g
   id="g18192"
   transform="translate(2543.3285,817.80848)">
</g>
<g
   id="g18194"
   transform="translate(2543.3285,817.80848)">
</g>
<g
   id="g18196"
   transform="translate(2543.3285,817.80848)">
</g>
</svg>
