<?xml version="1.0" encoding="iso-8859-1"?>
<!-- Generator: Adobe Illustrator 19.0.0, SVG Export Plug-In . SVG Version: 6.00 Build 0)  -->
<svg version="1.1" id="Layer_1" xmlns="http://www.w3.org/2000/svg" xmlns:xlink="http://www.w3.org/1999/xlink" x="0px" y="0px"
	 viewBox="0 0 512 512" style="enable-background:new 0 0 512 512;" xml:space="preserve">
<path style="fill:#AB91EA;" d="M0,256.006C0,397.402,114.606,512.004,255.996,512C397.394,512.004,512,397.402,512,256.006
	C512.009,114.61,397.394,0,255.996,0C114.606,0,0,114.614,0,256.006z"/>
<path style="fill:#947ADB;" d="M507.411,304.172c-0.43-0.442-115.386-115.399-115.886-115.886
	c-11.63-12.042-27.883-19.565-45.878-19.565c-0.603,0-1.199,0.084-1.801,0.101c-0.179-0.191-41.764-41.7-42.253-42.206
	c-7.231-7.996-16.533-14.291-27.485-17.865c-16.201-5.281-33.513-3.93-48.719,3.821c-15.255,7.774-26.562,21.043-31.849,37.367
	c-2.963,9.151-3.807,18.813-2.562,28.231c-10.82-4.549-22.714-6.018-34.613-4.149c-16.895,2.676-31.725,11.788-41.77,25.668
	c-18.532,25.594-15.345,60.417,5.942,82.362c0.467,0.514,27.374,27.359,27.652,27.655c-12.507,21.338-12.106,48.981,3.306,70.253
	c2.643,3.65,5.653,6.921,8.909,9.882c0.506,0.49,0.97,1.015,1.489,1.487c0.502,0.49,118.533,118.579,119.051,119.051
	c0.124,0.122,0.246,0.243,0.366,0.366C394.765,499.612,486.414,414.431,507.411,304.172z"/>
<g>
	<path style="fill:#F4F6F9;" d="M259.185,208.003c-29.994,0-54.4,24.406-54.4,54.4s24.406,54.4,54.4,54.4s54.4-24.406,54.4-54.4
		S289.179,208.003,259.185,208.003z M259.185,304.003c-22.938,0-41.6-18.662-41.6-41.6s18.662-41.6,41.6-41.6
		c22.938,0,41.6,18.662,41.6,41.6S282.123,304.003,259.185,304.003z"/>
	<path style="fill:#F4F6F9;" d="M409.585,232.853c0-35.362-28.682-64.131-63.937-64.131c-9.594,0-19.019,2.175-27.569,6.275
		c2.375-28.944-15.25-56.875-43.969-66.244c-16.199-5.281-33.513-3.932-48.719,3.819c-15.257,7.775-26.562,21.044-31.85,37.369
		c-2.962,9.15-3.806,18.813-2.562,28.231c-10.819-4.55-22.713-6.019-34.612-4.15c-16.894,2.675-31.725,11.788-41.769,25.668
		c-20.713,28.601-14.369,68.781,14.138,89.569c7.775,5.663,16.688,9.456,26.013,11.175c-18.894,22.025-21.006,55.019-3.25,79.525
		c10.037,13.862,24.863,22.975,41.744,25.657c3.381,0.538,6.763,0.8,10.125,0.8c13.394,0,26.413-4.219,37.469-12.269
		c7.738-5.644,14.068-12.956,18.581-21.312c6.107,10.107,14.907,18.332,25.675,23.819c15.206,7.756,32.531,9.093,48.725,3.801
		c33.525-10.918,51.937-47.163,41.044-80.794c-2.962-9.156-7.95-17.488-14.5-24.387
		C388.547,288.591,409.585,263.141,409.585,232.853z M345.535,284.172c-0.057,0.013-0.675-0.044-0.775-0.044
		c-3.2-0.244-5.493,1.756-6.337,4.518c-0.85,2.769,0.269,5.756,2.719,7.294c10.188,6.4,17.844,16.219,21.543,27.657
		c8.719,26.938-6.006,55.95-32.837,64.688c-12.975,4.231-26.794,3.15-38.95-3.038c-12.206-6.219-21.25-16.837-25.506-30.037
		c-0.037-0.138-0.206-0.763-0.25-0.9c-0.857-2.732-3.213-4.518-6.3-4.475c-2.863,0.094-5.318,2.075-6.013,4.857
		c-2.912,11.707-9.85,22.044-19.537,29.113c-11.05,8.05-24.556,11.318-38.044,9.169c-13.5-2.144-25.356-9.431-33.388-20.525
		c-16.594-22.907-11.519-55.082,11.268-71.681l-2.644-3.731l-0.031-0.406l3.456,3.631c2.406-1.619,3.419-4.65,2.475-7.394
		c-0.944-2.737-3.556-4.588-6.507-4.293c-11.937,0.8-23.893-2.588-33.606-9.657c-22.819-16.644-27.893-48.813-11.307-71.725
		c8.031-11.1,19.893-18.387,33.401-20.525c13.482-2.131,26.975,1.125,38.118,9.263c0.081,0.075,0.525,0.444,0.606,0.507
		c2.288,1.775,5.482,1.801,7.781,0.05c2.306-1.744,3.163-4.819,2.081-7.5c-4.507-11.175-4.944-23.637-1.237-35.106
		c4.231-13.062,13.281-23.681,25.488-29.9c12.15-6.194,25.975-7.275,38.938-3.05c26.837,8.75,41.569,37.775,32.825,64.737
		l-0.3,0.775c-0.994,2.725-0.031,5.775,2.35,7.438c2.363,1.644,5.563,1.513,7.788-0.356c9.181-7.738,20.844-12,32.844-12
		c28.201,0,51.137,23.025,51.137,51.331C396.785,261.153,373.859,284.172,345.535,284.172z"/>
</g>
<g>
</g>
<g>
</g>
<g>
</g>
<g>
</g>
<g>
</g>
<g>
</g>
<g>
</g>
<g>
</g>
<g>
</g>
<g>
</g>
<g>
</g>
<g>
</g>
<g>
</g>
<g>
</g>
<g>
</g>
</svg>
