<?xml version="1.0" encoding="UTF-8" standalone="no"?>
<!-- Generator: Adobe Illustrator 19.0.0, SVG Export Plug-In . SVG Version: 6.00 Build 0)  -->

<svg
   version="1.1"
   id="Layer_1"
   x="0px"
   y="0px"
   viewBox="0 0 708.15704 686.91266"
   xml:space="preserve"
   sodipodi:docname="mercados.svg"
   width="708.15704"
   height="686.91266"
   inkscape:version="1.1.1 (3bf5ae0d25, 2021-09-20)"
   xmlns:inkscape="http://www.inkscape.org/namespaces/inkscape"
   xmlns:sodipodi="http://sodipodi.sourceforge.net/DTD/sodipodi-0.dtd"
   xmlns="http://www.w3.org/2000/svg"
   xmlns:svg="http://www.w3.org/2000/svg"><defs
   id="defs21731" /><sodipodi:namedview
   id="namedview21729"
   pagecolor="#ffffff"
   bordercolor="#666666"
   borderopacity="1.0"
   inkscape:pageshadow="2"
   inkscape:pageopacity="0.0"
   inkscape:pagecheckerboard="0"
   showgrid="false"
   fit-margin-top="0"
   fit-margin-left="0"
   fit-margin-right="0"
   fit-margin-bottom="0"
   inkscape:zoom="0.56071358"
   inkscape:cx="518.98154"
   inkscape:cy="205.98752"
   inkscape:window-width="2400"
   inkscape:window-height="1271"
   inkscape:window-x="2391"
   inkscape:window-y="-9"
   inkscape:window-maximized="1"
   inkscape:current-layer="Layer_1" />
<path
   style="fill:#39aec0;stroke-width:1.38312"
   d="m 708.15703,651.50471 c 0,19.55183 -15.85647,35.40795 -35.40803,35.40795 H 35.407142 C 15.85558,686.91266 0,671.05654 0,651.50471 V 35.407843 C 0,15.856015 15.85558,0 35.407142,0 H 672.749 c 19.55156,0 35.40803,15.856015 35.40803,35.407843 z"
   id="path12116" /><ellipse
   transform="rotate(-62.2049)"
   style="fill:#ff8d36;stroke-width:0.999976"
   cx="-50.101124"
   cy="406.32849"
   rx="106.89948"
   ry="76.061211"
   id="ellipse21654" />
<path
   style="opacity:0.2;enable-background:new"
   d="m 385.94501,139.2323 c -4.442,-2.342 -9.104,-4.018 -13.914,-5.078 19.246,26.765 19.502,71.613 -2.188,112.758 -24.24,45.985 -67.79,71.984 -103.22,64.175 5.184,7.21 11.733,13.121 19.619,17.278 37.16,19.589 89.602,-6.87 117.134,-59.097 27.532,-52.227 19.728,-110.447 -17.431,-130.036 z"
   id="path21656" />
<ellipse
   transform="rotate(-62.2049)"
   style="fill:#69b551;stroke:none;stroke-width:0.999976"
   cx="1.9135878"
   cy="523.6709"
   rx="106.89948"
   ry="76.061211"
   id="ellipse21658" />
<path
   style="opacity:0.2;enable-background:new"
   d="m 514.83101,148.4213 c 15.611,27.141 14.502,68.784 -5.751,107.204 -27.532,52.227 -79.975,78.686 -117.135,59.097 -0.283,-0.149 -0.548,-0.321 -0.827,-0.474 5.61,9.754 13.36,17.652 23.183,22.83 37.16,19.589 89.603,-6.87 117.135,-59.097 27.322,-51.829 19.828,-109.54 -16.605,-129.56 z"
   id="path21660" />
<path
   style="fill:#8fe673"
   d="m 188.47801,236.5573 c 15.719,-40.166 -17.451,-94.65 -45.977,-77.789 -28.526,16.861 3.209,72.191 45.977,77.789 z"
   id="path21662" />
<g
   id="g21668"
   transform="translate(91.821011,91.409301)">
	<path
   style="fill:#76cc5b"
   d="M 96.657,145.148 C 79.37,105.631 17.389,90.561 9.141,122.654 c -8.248,32.093 53.316,48.778 87.516,22.494 z"
   id="path21664" />
	<path
   style="fill:#76cc5b"
   d="m 96.657,145.148 c -26.284,-34.2 -9.598,-95.765 22.494,-87.516 32.092,8.249 17.023,70.229 -22.494,87.516 z"
   id="path21666" />
</g>
<path
   style="fill:#599944"
   d="m 195.50501,241.1153 c 0.22,-0.34 0.419,-0.692 0.586,-1.059 0.026,-0.056 0.047,-0.114 0.072,-0.171 0.174,-0.404 0.325,-0.817 0.435,-1.243 l 13.873,-53.972 c 1.152,-4.485 -1.548,-9.054 -6.033,-10.206 -4.485,-1.155 -9.054,1.548 -10.206,6.032 l -8.835,34.372 -18.057,-30.55 c -2.355,-3.986 -7.497,-5.308 -11.482,-2.952 -3.986,2.355 -5.307,7.497 -2.952,11.482 l 18.058,30.552 -34.372,-8.835 c -4.485,-1.155 -9.054,1.548 -10.206,6.032 -1.152,4.485 1.548,9.054 6.033,10.206 l 53.949,13.867 h 0.002 l 0.022,0.006 c 0.218,0.056 0.437,0.087 0.655,0.125 0.126,0.022 0.249,0.056 0.377,0.072 0.006,0.001 0.012,0.002 0.019,0.003 0.35,0.044 0.697,0.066 1.043,0.066 v 0 0 c 0.018,0 0.035,-0.004 0.053,-0.004 0.4,-0.002 0.8,-0.04 1.201,-0.101 0.134,-0.02 0.265,-0.053 0.397,-0.079 0.282,-0.057 0.561,-0.126 0.838,-0.213 0.143,-0.045 0.284,-0.093 0.425,-0.145 0.257,-0.096 0.51,-0.209 0.76,-0.332 0.137,-0.067 0.275,-0.131 0.408,-0.206 0.058,-0.032 0.118,-0.055 0.177,-0.089 0.278,-0.164 0.54,-0.345 0.791,-0.535 0.013,-0.01 0.028,-0.017 0.041,-0.027 0.03,-0.023 0.055,-0.053 0.084,-0.076 0.302,-0.237 0.582,-0.491 0.844,-0.761 0.038,-0.039 0.078,-0.075 0.115,-0.116 0.276,-0.296 0.523,-0.613 0.75,-0.941 0.046,-0.065 0.091,-0.132 0.135,-0.202 z"
   id="path21670" />
<circle
   style="fill:#ff704d"
   cx="214.90001"
   cy="280.4603"
   r="68.889"
   id="circle21672" />
<path
   style="opacity:0.2;enable-background:new"
   d="m 214.90301,211.5743 c -5.785,0 -11.398,0.722 -16.767,2.066 29.94,7.489 52.119,34.56 52.119,66.82 0,32.26 -22.179,59.331 -52.119,66.82 5.369,1.342 10.982,2.066 16.767,2.066 38.045,0 68.886,-30.841 68.886,-68.886 0,-38.044 -30.841,-68.886 -68.886,-68.886 z"
   id="path21674" />
<ellipse
   style="fill:#ffc552"
   cx="273.66202"
   cy="322.63431"
   rx="79.976997"
   ry="78.769997"
   id="ellipse21676" />
<path
   style="opacity:0.2;enable-background:new"
   d="m 281.89601,244.2723 c 22.919,13.853 38.211,38.757 38.211,67.184 0,43.508 -35.808,78.777 -79.98,78.777 -2.781,0 -5.527,-0.141 -8.236,-0.414 12.158,7.348 26.459,11.591 41.769,11.591 44.171,0 79.98,-35.269 79.98,-78.777 10e-4,-40.767 -31.443,-74.3 -71.744,-78.361 z"
   id="path21678" />
<ellipse
   style="fill:#9773bf"
   cx="367.83502"
   cy="307.32129"
   rx="82.593002"
   ry="81.351997"
   id="ellipse21680" />
<path
   style="opacity:0.2;enable-background:new"
   d="m 395.90401,230.8003 c 13.048,14.386 20.99,33.36 20.99,54.168 0,44.929 -36.979,81.351 -82.594,81.351 -9.857,0 -19.306,-1.708 -28.07,-4.827 15.125,16.675 37.115,27.182 61.603,27.182 45.616,0 82.594,-36.422 82.594,-81.351 0,-35.219 -22.728,-65.205 -54.523,-76.523 z"
   id="path21682" />
<path
   style="fill:#8fe673"
   d="m 579.54501,316.9653 c 0,-16.748 -13.577,-30.324 -30.324,-30.324 -5.555,0 -10.756,1.501 -15.233,4.108 -4.031,-12.016 -15.374,-20.678 -28.748,-20.678 -5.555,0 -10.756,1.5 -15.234,4.108 -4.031,-12.016 -15.374,-20.678 -28.748,-20.678 -13.374,0 -24.718,8.662 -28.748,20.678 -4.478,-2.608 -9.679,-4.108 -15.234,-4.108 -13.373,0 -24.718,8.662 -28.748,20.678 -4.478,-2.608 -9.679,-4.108 -15.233,-4.108 -16.748,0 -30.324,13.577 -30.324,30.324 v 45.571 h 236.575 v -45.571 z"
   id="path21684" />
<g
   style="opacity:0.2"
   id="g21688"
   transform="translate(91.821011,91.409301)">
	<path
   d="m 457.399,195.233 c -3.946,0 -7.706,0.769 -11.162,2.143 11.206,4.454 19.131,15.39 19.131,28.182 v 45.571 h 22.356 v -45.571 c 0,-16.75 -13.577,-30.325 -30.325,-30.325 z"
   id="path21686" />
</g>
<polygon
   style="fill:#f2ae5d"
   points="45.205,470.638 479.011,470.638 479.011,290.754 261.82,259.949 45.205,290.754 "
   id="polygon21690"
   transform="translate(91.821011,91.409301)" />
<polygon
   style="opacity:0.2;enable-background:new"
   points="479.011,324.093 479.011,290.754 261.82,259.949 45.205,290.754 45.205,324.093 "
   id="polygon21692"
   transform="translate(91.821011,91.409301)" />
<rect
   x="111.84801"
   y="320.7453"
   style="fill:#f2ae5d"
   width="483.58701"
   height="61.221001"
   id="rect21694" />

<g
   id="g21698"
   transform="translate(91.821011,91.409301)">
</g>
<g
   id="g21700"
   transform="translate(91.821011,91.409301)">
</g>
<g
   id="g21702"
   transform="translate(91.821011,91.409301)">
</g>
<g
   id="g21704"
   transform="translate(91.821011,91.409301)">
</g>
<g
   id="g21706"
   transform="translate(91.821011,91.409301)">
</g>
<g
   id="g21708"
   transform="translate(91.821011,91.409301)">
</g>
<g
   id="g21710"
   transform="translate(91.821011,91.409301)">
</g>
<g
   id="g21712"
   transform="translate(91.821011,91.409301)">
</g>
<g
   id="g21714"
   transform="translate(91.821011,91.409301)">
</g>
<g
   id="g21716"
   transform="translate(91.821011,91.409301)">
</g>
<g
   id="g21718"
   transform="translate(91.821011,91.409301)">
</g>
<g
   id="g21720"
   transform="translate(91.821011,91.409301)">
</g>
<g
   id="g21722"
   transform="translate(91.821011,91.409301)">
</g>
<g
   id="g21724"
   transform="translate(91.821011,91.409301)">
</g>
<g
   id="g21726"
   transform="translate(91.821011,91.409301)">
</g>
<path
   style="fill:none;stroke:#000000;stroke-width:3;stroke-linecap:butt;stroke-linejoin:miter;stroke-miterlimit:4;stroke-dasharray:none;stroke-opacity:1"
   d="M 595.43502,381.96631 H 284.43272"
   id="path21860" /><path
   style="fill:none;stroke:#000000;stroke-width:3;stroke-linecap:butt;stroke-linejoin:miter;stroke-miterlimit:4;stroke-dasharray:none;stroke-opacity:1"
   d="M 137.22003,482.9758 H 434.20525"
   id="path21862" /><path
   style="fill:none;stroke:#000000;stroke-width:3;stroke-linecap:butt;stroke-linejoin:miter;stroke-miterlimit:4;stroke-dasharray:none;stroke-opacity:1"
   d="m 173.16091,381.96631 h -61.3129 V 320.7453 h 483.58701 v 61.22101"
   id="path21864" /><path
   style="fill:none;stroke:#000000;stroke-width:3;stroke-linecap:butt;stroke-linejoin:miter;stroke-miterlimit:4;stroke-dasharray:none;stroke-opacity:1"
   d="m 137.02601,382.1633 v 179.884 h 433.806 v -179.884"
   id="path22081" /></svg>
