<?xml version="1.0" encoding="UTF-8" standalone="no"?>
<!-- Generator: Adobe Illustrator 16.0.0, SVG Export Plug-In . SVG Version: 6.00 Build 0)  -->

<svg
   version="1.1"
   id="Capa_1"
   x="0px"
   y="0px"
   width="71.02784"
   height="71.02784"
   viewBox="0 0 71.02784 71.027841"
   xml:space="preserve"
   sodipodi:docname="tradicional.svg"
   inkscape:version="1.1.1 (3bf5ae0d25, 2021-09-20)"
   xmlns:inkscape="http://www.inkscape.org/namespaces/inkscape"
   xmlns:sodipodi="http://sodipodi.sourceforge.net/DTD/sodipodi-0.dtd"
   xmlns="http://www.w3.org/2000/svg"
   xmlns:svg="http://www.w3.org/2000/svg"><defs
   id="defs39">
	
</defs><sodipodi:namedview
   id="namedview37"
   pagecolor="#ffffff"
   bordercolor="#666666"
   borderopacity="1.0"
   inkscape:pageshadow="2"
   inkscape:pageopacity="0.0"
   inkscape:pagecheckerboard="0"
   showgrid="false"
   fit-margin-top="0"
   fit-margin-left="0"
   fit-margin-right="0"
   fit-margin-bottom="0"
   inkscape:zoom="4.2785483"
   inkscape:cx="20.334"
   inkscape:cy="28.163758"
   inkscape:window-width="2400"
   inkscape:window-height="1271"
   inkscape:window-x="2391"
   inkscape:window-y="-9"
   inkscape:window-maximized="1"
   inkscape:current-layer="Capa_1" />
<circle
   style="fill:#b4987a;fill-opacity:1;stroke:none;stroke-width:1.31557;stroke-linecap:round;stroke-linejoin:round;stroke-miterlimit:10;stroke-dasharray:none;stroke-opacity:1"
   id="path3039"
   cx="35.51392"
   cy="35.51392"
   r="35.51392" /><path
   d="m 50.89099,26.901647 v -5.314 c 0,-3.418 -2.727,-6.2 -6.145,-6.2 h -16.753 c -3.418,0 -6.201,2.781 -6.201,6.2 v 5.313 h -6.474001 c -1.49,0 -2.698,1.208 -2.698,2.698 v 5.865 c 0,1.491 1.208,2.698 2.698,2.698 h 0.804 l 2.948,16.195 c 0.233,1.282 1.351,2.214 2.654001,2.214 h 29.292 c 1.304,0 2.42,-0.932 2.654,-2.215 l 2.946,-16.194 h 0.75 c 1.49,0 2.698,-1.207 2.698,-2.698 v -5.865 c 0,-1.49 -1.208,-2.698 -2.698,-2.698 z m -24.101,-5.314 c 0,-0.652 0.551,-1.202 1.203,-1.202 h 16.756 c 0.651,0 1.146,0.55 1.146,1.202 v 5.313 h -19.105 z m 3.732,25.341 c 0,1.037 -0.829,1.877 -1.866,1.877 -1.036,0 -1.866,-0.84 -1.866,-1.877 v -10.304 c 0,-1.037 0.83,-1.876 1.866,-1.876 1.038,0 1.866,0.841 1.866,1.876 z m 7.718,0 c 0,1.037 -0.83,1.877 -1.866,1.877 -1.036,0 -1.867,-0.84 -1.867,-1.877 v -10.304 c 0,-1.037 0.831,-1.876 1.867,-1.876 1.037,0 1.866,0.841 1.866,1.876 z m 7.718,0 c 0,1.037 -0.83,1.877 -1.865,1.877 -1.037,0 -1.867,-0.84 -1.867,-1.877 v -10.304 c 0,-1.037 0.83,-1.876 1.867,-1.876 1.035,0 1.865,0.841 1.865,1.876 z"
   id="path2"
   style="fill:#337b8f;fill-opacity:1" />
<g
   id="g6"
   transform="translate(11.628382,12.008745)">
</g>
<g
   id="g8"
   transform="translate(11.628382,12.008745)">
</g>
<g
   id="g10"
   transform="translate(11.628382,12.008745)">
</g>
<g
   id="g12"
   transform="translate(11.628382,12.008745)">
</g>
<g
   id="g14"
   transform="translate(11.628382,12.008745)">
</g>
<g
   id="g16"
   transform="translate(11.628382,12.008745)">
</g>
<g
   id="g18"
   transform="translate(11.628382,12.008745)">
</g>
<g
   id="g20"
   transform="translate(11.628382,12.008745)">
</g>
<g
   id="g22"
   transform="translate(11.628382,12.008745)">
</g>
<g
   id="g24"
   transform="translate(11.628382,12.008745)">
</g>
<g
   id="g26"
   transform="translate(11.628382,12.008745)">
</g>
<g
   id="g28"
   transform="translate(11.628382,12.008745)">
</g>
<g
   id="g30"
   transform="translate(11.628382,12.008745)">
</g>
<g
   id="g32"
   transform="translate(11.628382,12.008745)">
</g>
<g
   id="g34"
   transform="translate(11.628382,12.008745)">
</g>
</svg>
