<?xml version="1.0" encoding="UTF-8" standalone="no"?>
<svg
   version="1.1"
   id="Icons"
   x="0px"
   y="0px"
   viewBox="0 0 574.94355 547.93116"
   xml:space="preserve"
   sodipodi:docname="Bar.svg"
   inkscape:version="1.1.1 (3bf5ae0d25, 2021-09-20)"
   inkscape:export-filename="D:\Datos_PlanApp\SVG\Bar.png"
   inkscape:export-xdpi="96"
   inkscape:export-ydpi="96"
   width="574.94354"
   height="547.93115"
   xmlns:inkscape="http://www.inkscape.org/namespaces/inkscape"
   xmlns:sodipodi="http://sodipodi.sourceforge.net/DTD/sodipodi-0.dtd"
   xmlns="http://www.w3.org/2000/svg"
   xmlns:svg="http://www.w3.org/2000/svg"><defs
   id="defs17" /><sodipodi:namedview
   id="namedview15"
   pagecolor="#ffffff"
   bordercolor="#666666"
   borderopacity="1.0"
   inkscape:pageshadow="2"
   inkscape:pageopacity="0.0"
   inkscape:pagecheckerboard="false"
   showgrid="false"
   inkscape:zoom="0.79296878"
   inkscape:cx="197.99014"
   inkscape:cy="273.02462"
   inkscape:window-width="2400"
   inkscape:window-height="1271"
   inkscape:window-x="2391"
   inkscape:window-y="-9"
   inkscape:window-maximized="1"
   inkscape:current-layer="Icons"
   fit-margin-top="0"
   fit-margin-left="0"
   fit-margin-right="0"
   fit-margin-bottom="0" />
<style
   type="text/css"
   id="style2">
	.st0{fill:none;stroke:#000000;stroke-width:2;stroke-linecap:round;stroke-linejoin:round;stroke-miterlimit:10;}
</style>




<rect
   style="fill:#d1ad8e;fill-opacity:1;stroke-width:13.312;stroke-linecap:round;stroke-linejoin:round;stroke-miterlimit:10;stroke-dasharray:none"
   id="rect1212"
   width="785.65515"
   height="785.65515"
   x="-107.19209"
   y="-103.40886"
   ry="169.30424" />
<g
   id="g5629"><g
     id="g5614"
     transform="translate(745.30047,128.63054)"><path
       class="st0"
       d="m -596.91693,369.83499 c 14.19173,20.27388 38.52039,34.46561 66.90385,34.46561 h 101.36945 60.82168 c 44.60256,0 82.8015,-51.34552 80.87586,-95.9065 l -3.19591,-73.95477 c 0.0841,-17.64501 -11.14646,-166.887947 -11.14646,-166.887947 -22.5295,12.75165 -36.42902,21.02129 -69.16385,13.13059 -32.73485,-7.89052 -52.4849,51.860087 -81.33632,38.423337 C -703.3058,1.9681127 -650.50481,287.70449 -596.91693,369.83499"
       id="path5236"
       sodipodi:nodetypes="cscsscsssc"
       style="fill:#ffffff;fill-opacity:1;stroke-width:30;stroke-miterlimit:10;stroke-dasharray:none" /><path
       class="st0"
       d="m -236.04166,323.20502 v 0 c -28.38345,0 -50.68473,-22.30128 -50.68473,-50.68472 V 171.15084 c 0,-28.38344 22.30128,-50.68473 50.68473,-50.68473 v 0 c 28.38345,0 50.68473,22.30129 50.68473,50.68473 V 272.5203 c 0,28.38344 -22.30128,50.68472 -50.68473,50.68472 z"
       id="path5238"
       style="fill:#ffffff;fill-opacity:1;stroke-width:30;stroke-miterlimit:10;stroke-dasharray:none" /><line
       class="st0"
       x1="-509.7392"
       y1="201.56172"
       x2="-509.7392"
       y2="323.20505"
       id="line5240"
       style="fill:#ffffff;fill-opacity:1;stroke-width:20;stroke-miterlimit:10;stroke-dasharray:none" /><line
       class="st0"
       x1="-388.09586"
       y1="201.56172"
       x2="-388.09586"
       y2="323.20505"
       id="line5242"
       style="fill:#ffffff;fill-opacity:1;stroke-width:20;stroke-miterlimit:10;stroke-dasharray:none" /><path
       class="st0"
       d="m -309.95647,-65.444467 c -24.32868,-14.191721 -44.60256,-12.164332 -64.87645,-6.082166 v 0 l -18.24652,-18.246501 h -2.02738 c -2.0274,-2.02739 -6.08217,-4.054779 -10.13694,-6.082168 l -2.0274,-2.02739 c -2.02738,-2.027388 -6.08215,-4.054778 -8.10955,-4.054778 -2.0274,0 -2.0274,-2.02739 -4.05478,-2.02739 -2.02739,-2.02739 -6.08217,-2.02739 -8.10957,-4.05478 -2.02738,0 -2.02738,-2.02739 -4.05477,-2.02739 -2.02738,0 -6.08217,-2.02739 -8.10956,-2.02739 -2.02738,0 -2.02738,0 -4.05477,-2.02739 -2.02739,0 -6.08216,-2.02738 -8.10956,-2.02738 h -4.05478 -14.19172 c -6.08217,0 -10.13694,0 -14.19172,2.02738 h -4.05478 c -4.05477,0 -8.10957,2.02739 -10.13695,2.02739 h -4.05477 c -10.13695,2.02739 -18.24651,6.08217 -26.35606,12.16434 h -2.0274 v 0 c -16.2191,10.136946 -30.41084,22.301281 -40.54777,38.520397 -18.24651,-12.164339 -40.54779,-18.246505 -64.87645,-14.191728 -36.49301,8.109555 -68.93123,38.520393 -72.98601,77.0407837 -6.08217,36.4930003 12.16433,70.9586203 38.52039,89.2051103 V 181.897 c 0,38.5204 -14.19172,77.04079 -42.57517,103.39685 -16.21911,14.19171 -24.32867,38.52039 -16.21911,62.84906 8.10955,26.35606 32.43822,40.54778 60.82167,40.54778 h 2.02739 c 30.41084,2.02741 56.76689,-24.32867 56.76689,-54.73951 V 284.5548 129.18487 c 0,-12.16432 8.10956,-24.32866 20.27389,-28.38344 v 0 c 18.24651,-6.082167 36.49301,-4.054767 52.71213,6.08218 4.05477,4.05477 10.13695,6.08216 14.19172,8.10955 0,0 2.02738,0 2.02738,2.02739 10.13695,4.05477 20.27389,8.10954 30.41084,10.13695 h 4.05477 c 6.08218,0 10.13695,2.02737 16.21912,2.02737 h 14.19172 4.05478 c 2.0274,0 6.08217,0 8.10956,-2.02737 2.02739,0 2.02739,0 4.05477,-2.02741 2.02739,0 6.08218,-2.02737 8.10956,-2.02737 2.02739,0 2.02739,-2.0274 4.05477,-2.0274 2.0274,-2.02739 6.08218,-2.02739 8.10957,-4.05477 2.02738,0 2.02738,-2.02739 4.05478,-2.02739 2.0274,-2.02739 6.08217,-2.02739 8.10955,-4.05478 l 2.0274,-2.02739 c 4.05477,-2.02738 6.08216,-4.05478 10.13694,-6.08216 h 2.02738 l 18.24652,-18.246507 v 0 c 8.10955,2.02739 18.24649,4.05478 26.35604,4.05478 46.62996,0 83.12296,-38.52041 81.09558,-85.1503403 0,-30.4108397 -18.2465,-54.7395017 -42.57517,-68.9312297 z"
       id="path5244"
       style="fill:#ffffff;fill-opacity:1;stroke-width:25;stroke-miterlimit:10;stroke-dasharray:none"
       sodipodi:nodetypes="ssccccssccsscscscsscccsccccsccscscsssccccsscsccscccsccccsscs" /><path
       class="st0"
       d="m -236.6722,281.87454 v 0 c -12.25662,0 -21.88683,-12.99188 -21.88683,-29.52701 V 193.2935 c 0,-16.53513 9.63021,-29.52702 21.88683,-29.52702 v 0 c 12.25661,0 21.88682,12.99189 21.88682,29.52702 v 59.05403 c 0,16.53513 -9.63021,29.52701 -21.88682,29.52701 z"
       id="path5246"
       style="fill:#ffffff;fill-opacity:1;stroke:none;stroke-width:5.01561;stroke-miterlimit:10;stroke-dasharray:none" /></g><path
     class="st0"
     d="m 148.38354,498.46553 c 14.19173,20.27388 38.52039,34.46561 66.90385,34.46561 h 101.36945 60.82168 c 44.60256,0 82.8015,-51.34552 80.87586,-95.9065 l -3.19591,-73.95477 c 0.0841,-17.64501 -11.14646,-166.88795 -11.14646,-166.88795 -22.5295,12.75165 -36.42902,21.02129 -69.16385,13.13059 -32.73485,-7.89052 -52.4849,51.86009 -81.33632,38.42334 C 41.994662,130.59865 94.795657,416.33503 148.38354,498.46553"
     id="path4"
     sodipodi:nodetypes="cscsscsssc"
     style="fill:#f9c332;fill-opacity:1;stroke-width:30;stroke-miterlimit:10;stroke-dasharray:none" /><path
     class="st0"
     d="m 509.25881,451.83556 v 0 c -28.38345,0 -50.68473,-22.30128 -50.68473,-50.68472 V 299.78138 c 0,-28.38344 22.30128,-50.68473 50.68473,-50.68473 v 0 c 28.38345,0 50.68473,22.30129 50.68473,50.68473 v 101.36946 c 0,28.38344 -22.30128,50.68472 -50.68473,50.68472 z"
     id="path6"
     style="fill:#f9fffe;fill-opacity:1;stroke-width:30;stroke-miterlimit:10;stroke-dasharray:none" /><line
     class="st0"
     x1="235.56128"
     y1="330.19226"
     x2="235.56128"
     y2="451.83557"
     id="line8"
     style="fill:#f9c332;fill-opacity:1;stroke-width:20;stroke-miterlimit:10;stroke-dasharray:none" /><line
     class="st0"
     x1="357.20462"
     y1="330.19226"
     x2="357.20462"
     y2="451.83557"
     id="line10"
     style="fill:#f9c332;fill-opacity:1;stroke-width:20;stroke-miterlimit:10;stroke-dasharray:none" /><path
     class="st0"
     d="M 435.344,63.18607 C 411.01532,48.994349 390.74144,51.021738 370.46755,57.103904 v 0 L 352.22103,38.857403 h -2.02738 c -2.0274,-2.02739 -6.08217,-4.054779 -10.13694,-6.082168 l -2.0274,-2.02739 c -2.02738,-2.027388 -6.08215,-4.054776 -8.10955,-4.054776 -2.0274,0 -2.0274,-2.02739 -4.05478,-2.02739 -2.02739,-2.027389 -6.08217,-2.027389 -8.10957,-4.054778 -2.02738,0 -2.02738,-2.02739 -4.05477,-2.02739 -2.02738,0 -6.08217,-2.027389 -8.10956,-2.027389 -2.02738,0 -2.02738,0 -4.05477,-2.02739 -2.02739,0 -6.08216,-2.027389 -8.10956,-2.027389 h -4.05478 -14.19172 c -6.08217,0 -10.13694,0 -14.19172,2.027389 h -4.05478 c -4.05477,0 -8.10957,2.02739 -10.13695,2.02739 h -4.05477 c -10.13695,2.027389 -18.24651,6.082168 -26.35606,12.164335 h -2.0274 v 0 C 198.13947,38.857403 183.94773,51.021738 173.8108,67.240854 155.56429,55.076515 133.26301,48.994349 108.93435,53.049126 72.44134,61.158681 40.003115,91.569519 35.948336,130.08991 c -6.082167,36.493 12.164335,70.95862 38.520393,89.20511 v 91.23252 c 0,38.5204 -14.191721,77.04079 -42.575171,103.39685 -16.219114,14.19171 -24.3286704,38.52039 -16.219114,62.84906 8.109557,26.35606 32.438227,40.54778 60.821674,40.54778 h 2.027389 C 108.93435,519.34864 135.2904,492.99256 135.2904,462.58172 V 413.18534 257.81541 c 0,-12.16432 8.10956,-24.32866 20.27389,-28.38344 v 0 c 18.24651,-6.08217 36.49301,-4.05477 52.71213,6.08218 4.05477,4.05477 10.13695,6.08216 14.19172,8.10955 0,0 2.02738,0 2.02738,2.02739 10.13695,4.05477 20.27389,8.10954 30.41084,10.13695 h 4.05477 c 6.08218,0 10.13695,2.02737 16.21912,2.02737 h 14.19172 4.05478 c 2.0274,0 6.08217,0 8.10956,-2.02737 2.02739,0 2.02739,0 4.05477,-2.02741 2.02739,0 6.08218,-2.02737 8.10956,-2.02737 2.02739,0 2.02739,-2.0274 4.05477,-2.0274 2.0274,-2.02739 6.08218,-2.02739 8.10957,-4.05477 2.02738,0 2.02738,-2.02739 4.05478,-2.02739 2.0274,-2.02739 6.08217,-2.02739 8.10955,-4.05478 l 2.0274,-2.02739 c 4.05477,-2.02738 6.08216,-4.05478 10.13694,-6.08216 h 2.02738 l 18.24652,-18.24651 v 0 c 8.10955,2.02739 18.24649,4.05478 26.35604,4.05478 46.62996,0 83.12296,-38.52041 81.09558,-85.15034 0,-30.41084 -18.2465,-54.739502 -42.57517,-68.93123 z"
     id="path12"
     style="fill:#ffffff;fill-opacity:1;stroke-width:25;stroke-miterlimit:10;stroke-dasharray:none"
     sodipodi:nodetypes="ssccccssccsscscscsscccsccccsccscscsssccccsscsccscccsccccsscs" /><path
     class="st0"
     d="m 508.62827,410.50508 v 0 c -12.25662,0 -21.88683,-12.99188 -21.88683,-29.52701 v -59.05403 c 0,-16.53513 9.63021,-29.52702 21.88683,-29.52702 v 0 c 12.25661,0 21.88682,12.99189 21.88682,29.52702 v 59.05403 c 0,16.53513 -9.63021,29.52701 -21.88682,29.52701 z"
     id="path4192"
     style="fill:#d1ad8e;fill-opacity:1;stroke-width:5.01561;stroke-miterlimit:10;stroke-dasharray:none;stroke:none" /></g></svg>
