<?xml version="1.0" encoding="UTF-8" standalone="no"?>
<!-- Generator: Adobe Illustrator 19.0.0, SVG Export Plug-In . SVG Version: 6.00 Build 0)  -->

<svg
   version="1.1"
   id="Layer_1"
   x="0px"
   y="0px"
   viewBox="0 0 950.9845 928.76514"
   xml:space="preserve"
   sodipodi:docname="barcocina.svg"
   width="950.9845"
   height="928.76514"
   inkscape:version="1.1.1 (3bf5ae0d25, 2021-09-20)"
   xmlns:inkscape="http://www.inkscape.org/namespaces/inkscape"
   xmlns:sodipodi="http://sodipodi.sourceforge.net/DTD/sodipodi-0.dtd"
   xmlns="http://www.w3.org/2000/svg"
   xmlns:svg="http://www.w3.org/2000/svg"><defs
   id="defs9748" /><sodipodi:namedview
   id="namedview9746"
   pagecolor="#ffffff"
   bordercolor="#666666"
   borderopacity="1.0"
   inkscape:pageshadow="2"
   inkscape:pageopacity="0.0"
   inkscape:pagecheckerboard="0"
   showgrid="false"
   inkscape:zoom="0.56071358"
   inkscape:cx="490.44648"
   inkscape:cy="500.25541"
   inkscape:window-width="1920"
   inkscape:window-height="1001"
   inkscape:window-x="-9"
   inkscape:window-y="-9"
   inkscape:window-maximized="1"
   inkscape:current-layer="Layer_1"
   fit-margin-top="0"
   fit-margin-left="0"
   fit-margin-right="0"
   fit-margin-bottom="0" />
<ellipse
   style="fill:#32b699;fill-opacity:1;stroke-width:90.9218;stroke-linecap:round;stroke-linejoin:round;stroke-miterlimit:10"
   id="path5813"
   cx="475.49225"
   cy="464.38257"
   rx="475.49225"
   ry="464.38257" /><path
   style="fill:#e07188;stroke-width:1.47223"
   d="m 756.49745,372.9339 c -4.83921,-5.90067 -12.06638,-9.32067 -19.69692,-9.32067 H 329.32347 c -7.63055,0 -14.85771,3.42293 -19.69692,9.32067 -4.83773,5.90218 -6.77225,13.65933 -5.27646,21.14119 l 67.91235,339.5603 c 2.3806,11.90295 12.83341,20.47278 24.97339,20.47278 H 668.8867 c 12.13999,0 22.59279,-8.56836 24.97339,-20.47278 l 67.91235,-339.5603 c 1.49873,-7.48186 -0.43726,-15.2405 -5.27499,-21.14119 z"
   id="path9693" />
<path
   style="fill:#dc4161;stroke-width:1.47223"
   d="M 736.80199,363.61177 H 533.06347 v 390.49492 h 135.82618 c 12.13998,0 22.59279,-8.56835 24.97339,-20.47279 l 23.06979,-115.35043 h 19.86916 c 70.21344,0 127.33732,-57.12388 127.33732,-127.33733 0,-70.21344 -57.12388,-127.33437 -127.33732,-127.33437 z m 0,203.73852 h -9.68283 l 30.00841,-150.0361 c 32.29034,8.92611 56.07565,38.54437 56.07565,73.63489 10e-4,42.12779 -34.27198,76.40121 -76.40123,76.40121 z"
   id="path9695" />
<path
   style="fill:#d6e5f6;stroke-width:1.47223"
   d="m 490.61917,312.67714 c -14.06417,0 -25.46658,-11.40092 -25.46658,-25.46806 0,-14.31446 -5.52085,-20.43892 -18.00828,-32.92634 -13.89781,-13.89636 -32.93076,-32.92784 -32.92635,-68.94294 -0.003,-36.01654 19.03295,-55.04802 32.93078,-68.9429 9.94782,-9.94341 26.07166,-9.94195 36.01802,0.004 9.94343,9.94636 9.94048,26.07165 -0.003,36.01654 -12.48889,12.48597 -18.00975,18.61043 -18.00828,32.92488 -0.001,14.3174 5.5179,20.4404 18.00533,32.92635 13.89782,13.89488 32.92931,32.92638 32.92931,68.94293 -0.002,14.06565 -11.40534,25.46511 -25.46953,25.46511 z"
   id="path9697" />
<path
   style="fill:#bcd6f2;stroke-width:1.47223"
   d="m 626.44388,312.67714 c -14.06418,0 -25.46659,-11.40092 -25.46659,-25.46806 0,-14.31446 -5.52085,-20.43892 -18.00828,-32.92634 -13.89781,-13.89636 -32.93077,-32.92784 -32.92634,-68.94294 -0.003,-36.01654 19.03295,-55.04802 32.93077,-68.9429 9.94784,-9.94341 26.07167,-9.94195 36.01803,0.004 9.94342,9.94636 9.94046,26.07165 -0.003,36.01654 -12.4889,12.48597 -18.00975,18.61043 -18.00827,32.92488 -10e-4,14.3174 5.5179,20.4404 18.00386,32.92635 13.89634,13.89488 32.93077,32.92638 32.93077,68.94293 -0.001,14.06565 -11.40387,25.46511 -25.46952,25.46511 z"
   id="path9699" />
<path
   style="fill:#e9a440;stroke-width:1.47223"
   d="m 665.19877,552.09803 c -11.93093,-27.5807 -41.42404,-44.63645 -83.0483,-48.01962 -35.18181,-2.85759 -77.80425,4.17671 -120.01742,19.81175 -13.18967,4.88633 -19.91923,19.53793 -15.03438,32.72907 4.32098,11.66004 16.27547,18.25857 28.10333,16.25486 l 19.13454,113.81492 c -1.47075,0.55797 -2.94298,1.14539 -4.41226,1.67981 -13.21471,4.81565 -20.02524,19.43191 -15.21104,32.64811 3.76595,10.33945 13.52975,16.75982 23.93103,16.75982 2.89293,0 5.83739,-0.49761 8.71707,-1.54436 6.92682,-2.5234 13.91402,-5.30296 20.77164,-8.2695 102.35364,-44.25808 161.27951,-119.86135 137.06579,-175.86486 z"
   id="path9701" />
<g
   id="g9707"
   transform="matrix(1.4722268,0,0,1.4722268,110.35917,64.066593)">
	<path
   style="fill:#f4d853"
   d="m 169.187,242.588 c 10.62,-28.673 15.4,-57.628 13.458,-81.528 -2.298,-28.276 -13.883,-48.309 -32.619,-56.409 -38.039,-16.447 -89.392,23.574 -119.451,93.094 -1.997,4.618 -3.886,9.361 -5.614,14.098 -3.274,8.976 1.349,18.905 10.326,22.177 8.971,3.273 18.906,-1.349 22.176,-10.324 0.364,-1.001 0.762,-1.999 1.143,-3 l 77.308,13.012 c -1.362,8.036 3.121,16.159 11.042,19.093 1.981,0.733 4.011,1.082 6.006,1.082 7.031,0 13.642,-4.316 16.225,-11.295 z"
   id="path9703" />
	<path
   style="fill:#f4d853"
   d="m 271.017,465.635 c 8.449,-10.093 11.885,-23.738 9.436,-37.435 L 262.504,327.92 c -2.7,-15.087 -12.058,-29.102 -25.678,-38.458 -7.873,-5.409 -18.643,-3.409 -24.052,4.465 -5.409,7.874 -3.409,18.643 4.465,24.052 0.067,0.045 0.126,0.099 0.191,0.145 l -78.114,117.187 c -4.967,-3.303 -11.504,-3.96 -17.24,-1.13 -8.569,4.229 -12.086,14.601 -7.858,23.168 7.356,14.911 22.842,24.171 40.415,24.171 h 81.192 c 13.918,0 26.746,-5.792 35.192,-15.885 z"
   id="path9705" />
</g>
<path
   style="fill:#e9a440;stroke-width:1.47223"
   d="M 388.27437,417.88542 C 374.5709,401.16975 356.17836,390.02795 336.49028,386.50637 L 188.85977,360.08726 c -20.16361,-3.60991 -40.25656,1.45015 -55.12017,13.88752 -14.85772,12.43443 -23.38043,31.31868 -23.38043,51.80766 v 119.52862 c -0.004,22.64875 10.03618,42.61509 27.5483,54.78156 4.43141,3.07549 9.49292,4.55213 14.50733,4.55213 8.06191,0 15.9928,-3.81896 20.93948,-10.94012 6.15833,-8.86575 5.88303,-20.26225 0.21054,-28.71578 L 347.26404,448.35168 c 0.54766,0.59773 1.1012,1.19396 1.62238,1.83145 8.91875,10.87681 24.96602,12.46535 35.84137,3.54659 10.87681,-8.92021 12.4668,-24.96602 3.54658,-35.8443 z"
   id="path9709" />
<path
   style="fill:#f4d853;stroke-width:1.47223"
   d="M 333.01728,728.82267 455.15175,557.71163 c 23.08748,-32.35218 19.15662,-79.70783 -8.94967,-107.81559 l -17.45176,-17.45178 c -15.18162,-15.18159 -36.93671,-23.88836 -59.68556,-23.88981 -17.53275,0.001 -34.63119,5.31031 -48.13151,14.94897 L 149.8178,545.63054 c -16.62734,11.86908 -27.08163,29.76843 -28.68635,49.10465 -1.60031,19.33476 5.76231,38.71074 20.20926,53.16064 l 89.41276,89.41276 c 13.17054,13.17053 30.1674,20.42272 47.85178,20.42272 21.46507,0 41.29743,-10.53671 54.41203,-28.90864 z"
   id="path9711" />
<path
   style="fill:#e9a440;stroke-width:1.47223"
   d="M 333.01728,728.82267 455.15175,557.71163 c 23.08748,-32.35218 19.15662,-79.70783 -8.94967,-107.81559 l -8.71999,-8.71852 -251.42838,251.42984 44.70123,44.70269 c 13.17054,13.17055 30.1674,20.42273 47.8518,20.42273 21.46358,-0.001 41.29594,-10.53818 54.41054,-28.91011 z"
   id="path9713" />
<g
   id="g9715"
   transform="translate(170.99619,181.89981)">
</g>
<g
   id="g9717"
   transform="translate(170.99619,181.89981)">
</g>
<g
   id="g9719"
   transform="translate(170.99619,181.89981)">
</g>
<g
   id="g9721"
   transform="translate(170.99619,181.89981)">
</g>
<g
   id="g9723"
   transform="translate(170.99619,181.89981)">
</g>
<g
   id="g9725"
   transform="translate(170.99619,181.89981)">
</g>
<g
   id="g9727"
   transform="translate(170.99619,181.89981)">
</g>
<g
   id="g9729"
   transform="translate(170.99619,181.89981)">
</g>
<g
   id="g9731"
   transform="translate(170.99619,181.89981)">
</g>
<g
   id="g9733"
   transform="translate(170.99619,181.89981)">
</g>
<g
   id="g9735"
   transform="translate(170.99619,181.89981)">
</g>
<g
   id="g9737"
   transform="translate(170.99619,181.89981)">
</g>
<g
   id="g9739"
   transform="translate(170.99619,181.89981)">
</g>
<g
   id="g9741"
   transform="translate(170.99619,181.89981)">
</g>
<g
   id="g9743"
   transform="translate(170.99619,181.89981)">
</g>
</svg>
