<?xml version="1.0" encoding="UTF-8" standalone="no"?>
<!-- Generator: Adobe Illustrator 19.0.0, SVG Export Plug-In . SVG Version: 6.00 Build 0)  -->

<svg
   version="1.1"
   id="Layer_1"
   x="0px"
   y="0px"
   viewBox="0 0 950.98451 928.76515"
   xml:space="preserve"
   sodipodi:docname="cafe.svg"
   width="950.9845"
   height="928.76514"
   inkscape:version="1.1.1 (3bf5ae0d25, 2021-09-20)"
   xmlns:inkscape="http://www.inkscape.org/namespaces/inkscape"
   xmlns:sodipodi="http://sodipodi.sourceforge.net/DTD/sodipodi-0.dtd"
   xmlns="http://www.w3.org/2000/svg"
   xmlns:svg="http://www.w3.org/2000/svg"><defs
   id="defs11801" /><sodipodi:namedview
   id="namedview11799"
   pagecolor="#ffffff"
   bordercolor="#666666"
   borderopacity="1.0"
   inkscape:pageshadow="2"
   inkscape:pageopacity="0.0"
   inkscape:pagecheckerboard="0"
   showgrid="false"
   fit-margin-top="0"
   fit-margin-left="0"
   fit-margin-right="0"
   fit-margin-bottom="0"
   inkscape:zoom="0.39648516"
   inkscape:cx="443.9006"
   inkscape:cy="702.42226"
   inkscape:window-width="1920"
   inkscape:window-height="1001"
   inkscape:window-x="-9"
   inkscape:window-y="-9"
   inkscape:window-maximized="1"
   inkscape:current-layer="Layer_1" />
<ellipse
   style="fill:#32b699;fill-opacity:1;stroke-width:90.9218;stroke-linecap:round;stroke-linejoin:round;stroke-miterlimit:10"
   id="path5813"
   cx="475.49225"
   cy="464.38257"
   rx="475.49225"
   ry="464.38257" />






<g
   id="g11897"
   transform="matrix(1.2392679,0,0,1.2392679,187.96571,176.13561)"><polygon
     style="fill:#595e62"
     points="51.213,12.062 346.347,12.062 346.347,102.409 129.513,102.409 129.513,66.27 69.283,66.27 51.213,48.2 "
     id="polygon11738" /><path
     style="fill:#a26234"
     d="m 466.689,295.15 c 0.121,2.048 0.121,3.975 0.121,6.023 0,85.168 -46.619,159.373 -115.644,198.764 H 124.695 C 55.67,460.545 9.051,386.341 9.051,301.172 c 0,-18.793 2.289,-36.861 6.506,-54.088 69.869,2.65 72.037,48.064 146.001,48.064 76.373,0 76.373,-48.185 152.627,-48.185 76.372,0.002 76.372,48.187 152.504,48.187 z"
     id="path11740" /><path
     style="fill:#895329"
     d="m 314.184,391.52 c 58.901,0 72.486,28.59 110.494,41.704 26.482,-37.3 42.132,-82.816 42.132,-132.051 0,-2.048 0,-3.975 -0.121,-6.023 -76.133,0 -76.133,-48.185 -152.506,-48.185 -76.254,0 -76.254,48.185 -152.627,48.185 -73.963,0 -76.132,-45.414 -146.001,-48.064 -4.215,17.226 -6.504,35.295 -6.504,54.087 0,32.551 6.854,63.474 19.122,91.49 57.809,7.271 64.159,47.042 133.384,47.042 76.373,0 76.373,-48.185 152.627,-48.185 z"
     id="path11742" /><path
     style="fill:#e7eced"
     d="m 346.347,102.409 c 69.99,37.825 118.174,108.176 120.342,192.74 -76.133,0 -76.133,-48.185 -152.506,-48.185 -76.253,0 -76.253,48.185 -152.627,48.185 -73.965,0 -76.133,-45.414 -146.001,-48.064 15.539,-62.882 57.701,-114.319 113.958,-144.676 0,0 216.834,0 216.834,0 z"
     id="path11744" /><path
     style="fill:#d9dedf"
     d="M 238.228,102.409 H 129.032 C 72.776,132.766 30.614,184.203 15.074,247.085 32.4,247.743 45.553,251.037 56.68,255.611 92.723,182.106 158.418,125.888 238.228,102.409 Z"
     id="path11746" /><path
     d="m 445.993,21.112 c 3.605,2.707 12.61,10.616 21.906,27.657 21.488,39.395 25.999,93.495 25.999,131.94 h 18.101 C 511.999,38.488 455.538,5.484 453.135,4.149 l -2.05,-1.138 H 42.162 V 51.949 L 65.533,75.32 h 54.93 V 97.076 C 63.334,129.543 22.034,183.144 6.764,244.932 2.276,263.275 0,282.195 0,301.172 c 0,42.725 11.483,84.626 33.209,121.173 21.071,35.447 51.156,64.995 87.001,85.452 l 2.085,1.19 h 231.27 l 2.086,-1.19 c 35.845,-20.455 65.93,-50.005 87.001,-85.452 21.726,-36.547 33.209,-78.449 33.209,-121.173 0,-2.038 0,-4.145 -0.128,-6.402 C 473.57,212.227 428.715,138.727 355.4,97.078 V 21.112 Z M 73.031,57.219 60.263,44.452 V 21.112 H 337.297 V 93.358 H 138.564 V 75.32 H 274.07 V 57.219 Z m 354.062,355.877 c -19.07,32.08 -46.131,58.935 -78.355,77.79 H 127.123 C 94.898,472.031 67.838,445.176 48.768,413.096 28.706,379.346 18.101,340.643 18.101,301.172 c 0,-15 1.551,-29.956 4.589,-44.559 26.695,2.433 41.869,12.011 57.845,22.107 19.823,12.526 40.321,25.479 81.022,25.479 40.82,0 61.354,-12.965 81.212,-25.504 18.473,-11.664 35.921,-22.681 71.415,-22.681 35.596,0 53.063,11.037 71.554,22.722 18.294,11.561 37.177,23.475 71.976,25.233 -0.49,38.5 -11.034,76.176 -30.621,109.127 z m 30.068,-127.28 c -29.173,-1.792 -45.043,-11.821 -61.754,-22.38 -19.854,-12.546 -40.386,-25.52 -81.223,-25.52 -40.73,0 -61.242,12.951 -81.078,25.475 -18.496,11.679 -35.966,22.708 -71.549,22.708 -35.46,0 -52.894,-11.018 -71.351,-22.681 -16.631,-10.509 -33.777,-21.333 -63,-24.546 16.213,-53.42 53.829,-99.345 104.654,-127.411 h 212.127 c 66.35,36.667 108.077,101.19 113.174,174.355 z"
     id="path11748" /><rect
     x="292.13901"
     y="57.223"
     width="24.093"
     height="18.101"
     id="rect11750" /><g
     id="g11766">
	<rect
   x="123.486"
   y="382.46301"
   style="fill:#ffffff"
   width="24.093"
   height="18.101"
   id="rect11752" />
	<rect
   x="159.627"
   y="430.64801"
   style="fill:#ffffff"
   width="24.093"
   height="18.101"
   id="rect11754" />
	<rect
   x="171.67101"
   y="382.46301"
   style="fill:#ffffff"
   width="24.093"
   height="18.101"
   id="rect11756" />
	<rect
   x="316.22601"
   y="418.60501"
   style="fill:#ffffff"
   width="24.094"
   height="18.101"
   id="rect11758" />
	<rect
   x="352.36801"
   y="382.46301"
   style="fill:#ffffff"
   width="24.093"
   height="18.101"
   id="rect11760" />
	<rect
   x="292.13901"
   y="298.14801"
   style="fill:#ffffff"
   width="24.093"
   height="18.101"
   id="rect11762" />
	<rect
   x="255.998"
   y="334.27802"
   style="fill:#ffffff"
   width="24.093"
   height="18.101"
   id="rect11764" />
</g></g>
<g
   id="g11768"
   transform="translate(251.01978,199.55551)">
</g>
<g
   id="g11770"
   transform="translate(251.01978,199.55551)">
</g>
<g
   id="g11772"
   transform="translate(251.01978,199.55551)">
</g>
<g
   id="g11774"
   transform="translate(251.01978,199.55551)">
</g>
<g
   id="g11776"
   transform="translate(251.01978,199.55551)">
</g>
<g
   id="g11778"
   transform="translate(251.01978,199.55551)">
</g>
<g
   id="g11780"
   transform="translate(251.01978,199.55551)">
</g>
<g
   id="g11782"
   transform="translate(251.01978,199.55551)">
</g>
<g
   id="g11784"
   transform="translate(251.01978,199.55551)">
</g>
<g
   id="g11786"
   transform="translate(251.01978,199.55551)">
</g>
<g
   id="g11788"
   transform="translate(251.01978,199.55551)">
</g>
<g
   id="g11790"
   transform="translate(251.01978,199.55551)">
</g>
<g
   id="g11792"
   transform="translate(251.01978,199.55551)">
</g>
<g
   id="g11794"
   transform="translate(251.01978,199.55551)">
</g>
<g
   id="g11796"
   transform="translate(251.01978,199.55551)">
</g>
</svg>
