<?xml version="1.0" encoding="UTF-8" standalone="no"?>
<!-- Generator: Adobe Illustrator 19.0.0, SVG Export Plug-In . SVG Version: 6.00 Build 0)  -->

<svg
   version="1.1"
   id="Layer_1"
   x="0px"
   y="0px"
   viewBox="0 0 296.22076 446.75253"
   xml:space="preserve"
   sodipodi:docname="Heladeria.svg"
   width="296.22076"
   height="446.75253"
   inkscape:version="1.1.1 (3bf5ae0d25, 2021-09-20)"
   inkscape:export-filename="D:\Datos_PlanApp\SVG\Heladeria.png"
   inkscape:export-xdpi="96"
   inkscape:export-ydpi="96"
   xmlns:inkscape="http://www.inkscape.org/namespaces/inkscape"
   xmlns:sodipodi="http://sodipodi.sourceforge.net/DTD/sodipodi-0.dtd"
   xmlns="http://www.w3.org/2000/svg"
   xmlns:svg="http://www.w3.org/2000/svg"><defs
   id="defs99" /><sodipodi:namedview
   id="namedview97"
   pagecolor="#ffffff"
   bordercolor="#666666"
   borderopacity="1.0"
   inkscape:pageshadow="2"
   inkscape:pageopacity="0.0"
   inkscape:pagecheckerboard="0"
   showgrid="false"
   fit-margin-top="0"
   fit-margin-left="0"
   fit-margin-right="0"
   fit-margin-bottom="0"
   inkscape:zoom="1.6111111"
   inkscape:cx="201.72414"
   inkscape:cy="177.2069"
   inkscape:window-width="1920"
   inkscape:window-height="1001"
   inkscape:window-x="-9"
   inkscape:window-y="-9"
   inkscape:window-maximized="1"
   inkscape:current-layer="Layer_1" />


















<g
   id="g66"
   transform="translate(-91.868516,-50.454406)">
</g>
<g
   id="g68"
   transform="translate(-91.868516,-50.454406)">
</g>
<g
   id="g70"
   transform="translate(-91.868516,-50.454406)">
</g>
<g
   id="g72"
   transform="translate(-91.868516,-50.454406)">
</g>
<g
   id="g74"
   transform="translate(-91.868516,-50.454406)">
</g>
<g
   id="g76"
   transform="translate(-91.868516,-50.454406)">
</g>
<g
   id="g78"
   transform="translate(-91.868516,-50.454406)">
</g>
<g
   id="g80"
   transform="translate(-91.868516,-50.454406)">
</g>
<g
   id="g82"
   transform="translate(-91.868516,-50.454406)">
</g>
<g
   id="g84"
   transform="translate(-91.868516,-50.454406)">
</g>
<g
   id="g86"
   transform="translate(-91.868516,-50.454406)">
</g>
<g
   id="g88"
   transform="translate(-91.868516,-50.454406)">
</g>
<g
   id="g90"
   transform="translate(-91.868516,-50.454406)">
</g>
<g
   id="g92"
   transform="translate(-91.868516,-50.454406)">
</g>
<g
   id="g94"
   transform="translate(-91.868516,-50.454406)">
</g>
<g
   id="g8381"
   transform="rotate(30,175.86575,229.8756)"><path
     style="fill:#c58968;fill-opacity:1"
     d="M 204.8,66.4 C 201.6,34.4 170.4,0 132,0 93.6,0 62.4,34.4 60,66.4 Z"
     id="path2" /><path
     style="fill:#c58968;fill-opacity:1"
     d="m 132,66.4 h 72.8 C 201.6,34.4 170.4,0 132,0 c -0.8,0 0,1.6 0,1.6 z"
     id="path4" /><polygon
     style="fill:#ffc114;stroke:#000000;stroke-opacity:1"
     points="132,504 234.4,186.4 29.6,186.4 "
     id="polygon6" /><g
     id="g12"
     style="stroke:#000000;stroke-opacity:1">
	<polygon
   style="fill:#fca12a;stroke:#000000;stroke-opacity:1"
   points="132,504 234.4,186.4 131.2,186.4 "
   id="polygon8" />
	<polygon
   style="fill:#fca12a;stroke:#000000;stroke-opacity:1"
   points="132,504 234.4,186.4 131.2,186.4 "
   id="polygon10" />
</g><rect
     x="12"
     y="122.4"
     style="fill:#ffc114;stroke:#000000;stroke-opacity:1"
     width="240"
     height="64"
     id="rect14" /><g
     id="g26"
     style="stroke:#000000;stroke-opacity:1">
	<polyline
   style="fill:#fca12a;stroke:#000000;stroke-opacity:1"
   points="12,122.4 252,122.4 252,186.4 132,186.4  "
   id="polyline16" />
	<polygon
   style="fill:#fca12a;stroke:#000000;stroke-opacity:1"
   points="216,242.4 220.8,226.4 43.2,226.4 48,242.4 "
   id="polygon18" />
	<polygon
   style="fill:#fca12a;stroke:#000000;stroke-opacity:1"
   points="192.8,314.4 197.6,298.4 66.4,298.4 72,314.4 "
   id="polygon20" />
	<polygon
   style="fill:#fca12a;stroke:#000000;stroke-opacity:1"
   points="168.8,386.4 173.6,370.4 90.4,370.4 95.2,386.4 "
   id="polygon22" />
	<polygon
   style="fill:#fca12a;stroke:#000000;stroke-opacity:1"
   points="145.6,458.4 150.4,442.4 113.6,442.4 118.4,458.4 "
   id="polygon24" />
</g><g
     id="g36"
     style="stroke:#000000;stroke-opacity:1">
	<polygon
   style="fill:#ffc114;stroke:#000000;stroke-opacity:1"
   points="220.8,226.4 131.2,226.4 131.2,242.4 216,242.4 219.2,231.2 "
   id="polygon28" />
	<polygon
   style="fill:#ffc114;stroke:#000000;stroke-opacity:1"
   points="197.6,298.4 132,298.4 132,314.4 192.8,314.4 194.4,308 "
   id="polygon30" />
	<polygon
   style="fill:#ffc114;stroke:#000000;stroke-opacity:1"
   points="132,386.4 168.8,386.4 173.6,370.4 132,370.4 "
   id="polygon32" />
	<polygon
   style="fill:#ffc114;stroke:#000000;stroke-opacity:1"
   points="145.6,458.4 150.4,442.4 132,442.4 132,458.4 "
   id="polygon34" />
</g><path
     style="fill:#f1ecae;fill-opacity:1"
     d="M 169.6,122.4 C 166.4,82.4 135.2,56 96.8,56 58.4,56 28,82.4 24.8,122.4 Z"
     id="path38" /><path
     style="fill:#ed8697;fill-opacity:1"
     d="m 92,122.4 h 77.6 C 166.4,82.4 133.6,53.6 92.8,56 92,56 92,56.8 92,56.8 Z"
     id="path40" /><path
     style="fill:#84bf99;fill-opacity:1"
     d="M 240.8,122.4 C 237.6,82.4 206.4,56 168,56 129.6,56 98.4,82.4 95.2,122.4 Z"
     id="path42" /><path
     style="fill:#6b98cf;fill-opacity:1"
     d="m 172,122.4 h 68.8 C 237.6,82.4 206.4,57.6 172,56 v 0 z"
     id="path44" /><path
     style="fill:none;stroke:#000000;stroke-width:1px;stroke-linecap:butt;stroke-linejoin:miter;stroke-opacity:1"
     d="m 29.6,186.4 c 58.429653,18.51331 115.80799,36.45607 204.8,0"
     id="path7209"
     sodipodi:nodetypes="cc" /><path
     style="fill:none;stroke:#000000;stroke-width:1px;stroke-linecap:butt;stroke-linejoin:miter;stroke-opacity:1"
     d="m 48,242.4 c 47.749807,19.03891 98.96632,30.07773 168,0 v 0"
     id="path7301"
     sodipodi:nodetypes="ccc" /><path
     style="fill:none;stroke:#000000;stroke-width:1px;stroke-linecap:butt;stroke-linejoin:miter;stroke-opacity:1"
     d="m 72,314.4 c 37.7386,19.8401 77.76687,25.64976 120.8,0"
     id="path7545"
     sodipodi:nodetypes="cc" /><path
     style="fill:none;stroke:#000000;stroke-width:1px;stroke-linecap:butt;stroke-linejoin:miter;stroke-opacity:1"
     d="m 95.2,386.4 c 20.37042,11.65617 41.08087,22.36023 73.6,0"
     id="path7751"
     sodipodi:nodetypes="cc" /><path
     style="fill:none;stroke:#000000;stroke-width:1px;stroke-linecap:butt;stroke-linejoin:miter;stroke-opacity:1"
     d="m 145.6,458.4 c -13.56601,10.68594 -20.01669,4.47298 -27.2,0"
     id="path7843"
     sodipodi:nodetypes="cc" /><path
     style="fill:none;stroke:#000000;stroke-width:1px;stroke-linecap:butt;stroke-linejoin:miter;stroke-opacity:1"
     d="M 116.74577,186.091 V 457.32741"
     id="path7975" /><path
     style="fill:none;stroke:#000000;stroke-width:1px;stroke-linecap:butt;stroke-linejoin:miter;stroke-opacity:1"
     d="M 143.68966,186.51724 V 459.31035"
     id="path7979" /><path
     style="fill:none;stroke:#000000;stroke-width:1px;stroke-linecap:butt;stroke-linejoin:miter;stroke-opacity:1"
     d="M 168.8,386.4 V 187.13793"
     id="path7981" /><path
     style="fill:none;stroke:#000000;stroke-width:1px;stroke-linecap:butt;stroke-linejoin:miter;stroke-opacity:1"
     d="M 192.8,314.4 V 186.51724"
     id="path7983" /><path
     style="fill:none;stroke:#000000;stroke-width:1px;stroke-linecap:butt;stroke-linejoin:miter;stroke-opacity:1"
     d="M 216,242.4 V 186.2069"
     id="path7985" /><path
     style="fill:none;stroke:#000000;stroke-width:1px;stroke-linecap:butt;stroke-linejoin:miter;stroke-opacity:1"
     d="M 72,314.4 V 187.13793"
     id="path7987" /><path
     style="fill:none;stroke:#000000;stroke-width:1px;stroke-linecap:butt;stroke-linejoin:miter;stroke-opacity:1"
     d="M 48,242.4 V 185.58621"
     id="path7989" /><path
     style="fill:none;stroke:#000000;stroke-width:1px;stroke-linecap:butt;stroke-linejoin:miter;stroke-opacity:1"
     d="m 95.2,386.4 c 0,0 -1.596145,-200.62079 0,-200.1931"
     id="path8264" /></g></svg>
