<?xml version="1.0" encoding="UTF-8" standalone="no"?>
<svg
   xmlns:dc="http://purl.org/dc/elements/1.1/"
   xmlns:cc="http://creativecommons.org/ns#"
   xmlns:rdf="http://www.w3.org/1999/02/22-rdf-syntax-ns#"
   xmlns:svg="http://www.w3.org/2000/svg"
   xmlns="http://www.w3.org/2000/svg"
   xmlns:sodipodi="http://sodipodi.sourceforge.net/DTD/sodipodi-0.dtd"
   xmlns:inkscape="http://www.inkscape.org/namespaces/inkscape"
   width="210mm"
   height="297mm"
   viewBox="0 0 210 297"
   version="1.1"
   id="svg8"
   inkscape:version="1.0.1 (3bc2e813f5, 2020-09-07)"
   sodipodi:docname="Tiendas_marker.svg">
  <defs
     id="defs2" />
  <sodipodi:namedview
     id="base"
     pagecolor="#ffffff"
     bordercolor="#666666"
     borderopacity="1.0"
     inkscape:pageopacity="0.0"
     inkscape:pageshadow="2"
     inkscape:zoom="0.49497475"
     inkscape:cx="309.77965"
     inkscape:cy="394.32469"
     inkscape:document-units="mm"
     inkscape:current-layer="layer1"
     inkscape:document-rotation="0"
     showgrid="false"
     inkscape:window-width="1920"
     inkscape:window-height="1017"
     inkscape:window-x="-8"
     inkscape:window-y="-8"
     inkscape:window-maximized="1" />
  <metadata
     id="metadata5">
    <rdf:RDF>
      <cc:Work
         rdf:about="">
        <dc:format>image/svg+xml</dc:format>
        <dc:type
           rdf:resource="http://purl.org/dc/dcmitype/StillImage" />
        <dc:title></dc:title>
      </cc:Work>
    </rdf:RDF>
  </metadata>
  <g
     inkscape:label="Capa 1"
     inkscape:groupmode="layer"
     id="layer1">
    <path
       d="m 103.00291,69.113394 c 42.6137,0 77.1587,31.089366 77.1587,69.442876 0,62.62535 -77.1587,128.96533 -77.1587,128.96533 0,0 -77.1587,-65.78341 -77.1587,-128.96533 0,-38.35351 34.545,-69.442876 77.1587,-69.442876 z"
       id="Shape"
       fill="#ff6e6e"
       style="fill:#4b83dc;fill-opacity:1;fill-rule:evenodd;stroke:none;stroke-width:5.51133" />
    <circle
       style="fill:#4b83dc;fill-opacity:1;stroke-width:0.18837"
       cx="104.32639"
       cy="144.81404"
       r="48.222656"
       id="circle876" />
    <ellipse
       style="fill:#251d1d;stroke-width:0.130387;fill-opacity:1"
       cx="104.32639"
       cy="175.61664"
       rx="37.102245"
       ry="1.2168726"
       id="ellipse878" />
    <polygon
       style="fill:#ffe356"
       points="69.785,398.85 80.535,102.582 323.781,102.582 334.531,398.85 "
       id="polygon880"
       transform="matrix(0.18836975,0,0,0.18836975,56.103743,96.591377)" />
    <g
       id="g886"
       transform="matrix(0.18836975,0,0,0.18836975,56.103743,96.591377)">
	<path
   style="fill:#fcd34e"
   d="m 136.655,130.46 h 5.284 c 0.547,1.822 0.547,3.644 0,5.466 h -4.191 c 0.729,45.187 17.674,74.158 39.174,86.912 8.381,4.92 17.492,7.47 26.602,7.47 v 0 c 9.11,0 18.221,-2.551 26.784,-7.47 21.5,-12.754 38.446,-41.725 39.174,-86.912 h -4.191 c -0.547,-1.822 -0.547,-3.644 0,-5.466 h 5.284 c 1.275,0 2.186,0.364 3.098,1.275 0.911,0.911 1.275,1.822 1.275,3.098 -0.364,47.92 -18.585,78.895 -41.907,92.561 -9.293,5.466 -19.314,8.199 -29.335,8.199 v 0 c -10.021,0 -20.043,-2.733 -29.335,-8.199 -23.322,-13.665 -41.361,-44.641 -41.907,-92.561 0,-1.275 0.364,-2.186 1.275,-3.098 0.911,-0.911 1.822,-1.275 3.098,-1.275 z"
   id="path882" />

	<polygon
   style="fill:#fcd34e"
   points="71.243,359.675 333.073,359.675 333.256,364.413 71.243,364.413 "
   id="polygon884" />

</g>
    <g
       id="g892"
       transform="matrix(0.18836975,0,0,0.18836975,56.103743,96.591377)">
	<circle
   style="fill:#6b7f9e"
   cx="133.55701"
   cy="129.91299"
   r="7.2880001"
   id="circle888" />

	<circle
   style="fill:#6b7f9e"
   cx="270.759"
   cy="129.91299"
   r="7.2880001"
   id="circle890" />

</g>
    <path
       style="fill:#ffffff;stroke-width:0.18837"
       d="m 81.570773,120.54824 h 0.99534 c 0.10304,0.34321 0.10304,0.68642 0,1.02963 h -0.78946 c 0.13732,8.51187 3.32925,13.96912 7.3792,16.37159 1.57892,0.92678 3.29496,1.40712 5.01101,1.40712 v 0 c 1.71605,0 3.43229,-0.48053 5.0453,-1.40712 4.049947,-2.40247 7.242057,-7.85972 7.379187,-16.37159 h -0.78945 c -0.10304,-0.34321 -0.10304,-0.68642 0,-1.02963 h 0.99534 c 0.24017,0 0.41178,0.0686 0.58357,0.24017 0.17161,0.17161 0.24017,0.34321 0.24017,0.58357 -0.0686,9.02668 -3.50085,14.86143 -7.894007,17.43569 -1.75052,1.02963 -3.63817,1.54445 -5.52582,1.54445 v 0 c -1.88766,0 -3.7755,-0.51482 -5.52583,-1.54445 -4.39316,-2.57407 -7.79116,-8.40901 -7.89401,-17.43569 0,-0.24017 0.0686,-0.41177 0.24017,-0.58357 0.1716,-0.1716 0.34321,-0.24017 0.58357,-0.24017 z"
       id="path894" />
    <g
       id="g900"
       transform="matrix(0.18836975,0,0,0.18836975,56.103743,96.591377)">
	<polygon
   style="fill:#fcd34e"
   points="274.221,209.537 327.607,209.537 334.531,398.85 267.297,398.85 "
   id="polygon896" />

	<polygon
   style="fill:#fcd34e"
   points="268.754,359.675 333.073,359.675 333.256,364.413 268.572,364.413 "
   id="polygon898" />

</g>
    <polygon
       style="fill:#83cf8f"
       points="272.945,398.85 279.869,209.537 435.291,209.537 442.215,398.85 "
       id="polygon902"
       transform="matrix(0.18836975,0,0,0.18836975,56.103743,96.591377)" />
    <g
       id="g908"
       transform="matrix(0.18836975,0,0,0.18836975,56.103743,96.591377)">
	<path
   style="fill:#75bd80"
   d="m 315.764,227.211 h 3.28 c 0.364,1.093 0.364,2.369 0,3.462 h -2.551 c 0.364,28.971 11.297,47.374 24.962,55.573 5.466,3.098 11.297,4.737 17.127,4.737 v 0 c 5.831,0 11.661,-1.64 17.127,-4.737 13.848,-8.199 24.598,-26.602 24.962,-55.573 h -2.733 c -0.364,-1.093 -0.364,-2.369 0,-3.462 h 3.462 c 0.729,0 1.458,0.182 2.004,0.729 0.547,0.547 0.729,1.275 0.729,2.004 -0.182,30.611 -11.843,50.471 -26.784,59.217 -5.831,3.462 -12.39,5.284 -18.767,5.284 v 0 c -6.377,0 -12.937,-1.822 -18.767,-5.284 -14.941,-8.746 -26.42,-28.424 -26.784,-59.217 0,-0.729 0.182,-1.458 0.729,-2.004 0.547,-0.546 1.275,-0.729 2.004,-0.729 z"
   id="path904" />

	<polygon
   style="fill:#75bd80"
   points="273.856,373.888 441.304,373.888 441.304,376.803 273.856,376.803 "
   id="polygon906" />

</g>
    <g
       id="g914"
       transform="matrix(0.18836975,0,0,0.18836975,56.103743,96.591377)">
	<circle
   style="fill:#6b7f9e"
   cx="313.759"
   cy="226.847"
   r="4.737"
   id="circle910" />

	<circle
   style="fill:#6b7f9e"
   cx="401.401"
   cy="226.847"
   r="4.737"
   id="circle912" />

</g>
    <path
       style="fill:#ffffff;stroke-width:0.18837"
       d="m 115.41252,139.01356 h 0.61785 c 0.0686,0.20589 0.0686,0.44625 0,0.65214 h -0.48053 c 0.0686,5.45726 2.12802,8.92382 4.70209,10.46827 1.02963,0.58357 2.12801,0.89231 3.22621,0.89231 v 0 c 1.09838,0 2.19658,-0.30893 3.22621,-0.89231 2.60854,-1.54445 4.63351,-5.01101 4.70208,-10.46827 h -0.51481 c -0.0686,-0.20589 -0.0686,-0.44625 0,-0.65214 h 0.65213 c 0.13732,0 0.27465,0.0686 0.3775,0.13732 0.10303,0.10304 0.13732,0.24017 0.13732,0.37749 -0.0343,5.76619 -2.23087,9.50721 -5.0453,11.1547 -1.09838,0.65213 -2.3339,0.99534 -3.53513,0.99534 v 0 c -1.20124,0 -2.43694,-0.34321 -3.53514,-0.99534 -2.81443,-1.64749 -4.97673,-5.35423 -5.04529,-11.1547 0,-0.13732 0.0343,-0.27464 0.13732,-0.37749 0.10285,-0.10304 0.24017,-0.13732 0.37749,-0.13732 z"
       id="path916" />
    <g
       id="g918"
       transform="matrix(0.18836975,0,0,0.18836975,204.7056,64.519034)">
</g>
    <g
       id="g920"
       transform="matrix(0.18836975,0,0,0.18836975,204.7056,64.519034)">
</g>
    <g
       id="g922"
       transform="matrix(0.18836975,0,0,0.18836975,204.7056,64.519034)">
</g>
    <g
       id="g924"
       transform="matrix(0.18836975,0,0,0.18836975,204.7056,64.519034)">
</g>
    <g
       id="g926"
       transform="matrix(0.18836975,0,0,0.18836975,204.7056,64.519034)">
</g>
    <g
       id="g928"
       transform="matrix(0.18836975,0,0,0.18836975,204.7056,64.519034)">
</g>
    <g
       id="g930"
       transform="matrix(0.18836975,0,0,0.18836975,204.7056,64.519034)">
</g>
    <g
       id="g932"
       transform="matrix(0.18836975,0,0,0.18836975,204.7056,64.519034)">
</g>
    <g
       id="g934"
       transform="matrix(0.18836975,0,0,0.18836975,204.7056,64.519034)">
</g>
    <g
       id="g936"
       transform="matrix(0.18836975,0,0,0.18836975,204.7056,64.519034)">
</g>
    <g
       id="g938"
       transform="matrix(0.18836975,0,0,0.18836975,204.7056,64.519034)">
</g>
    <g
       id="g940"
       transform="matrix(0.18836975,0,0,0.18836975,204.7056,64.519034)">
</g>
    <g
       id="g942"
       transform="matrix(0.18836975,0,0,0.18836975,204.7056,64.519034)">
</g>
    <g
       id="g944"
       transform="matrix(0.18836975,0,0,0.18836975,204.7056,64.519034)">
</g>
    <g
       id="g946"
       transform="matrix(0.18836975,0,0,0.18836975,204.7056,64.519034)">
</g>
  </g>
</svg>
